<svg width="78" height="80" viewBox="0 0 78 80" fill="none" xmlns="http://www.w3.org/2000/svg">
<path d="M68.5158 30.3909C71.7507 28.728 73.7506 25.3672 73.6699 21.7328C73.6699 16.5336 69.8701 12.3028 65.1897 12.3028C60.5092 12.3028 56.7094 16.5336 56.7094 21.7328H56.7129C56.6322 25.3883 58.6532 28.7631 61.9127 30.4155C61.2741 30.4681 60.6425 30.5839 60.0285 30.7593C58.6777 27.83 55.7165 25.9847 52.4921 26.0618C49.2642 26.139 46.3977 28.1282 45.1908 31.1171C44.2609 30.7312 43.2786 30.4891 42.2786 30.3979C45.5136 28.735 47.5169 25.3707 47.4362 21.7328C47.4362 16.5337 43.6364 12.3029 38.956 12.3029C34.2756 12.3029 30.4757 16.5337 30.4757 21.7328C30.395 25.3568 32.3844 28.714 35.6053 30.3804C34.5878 30.4471 33.5738 30.5909 32.5774 30.8119C31.216 27.9633 28.3705 26.1215 25.2128 26.0443C22.0796 26.118 19.2518 27.9388 17.8834 30.7593C17.2694 30.5839 16.6378 30.4681 15.9992 30.4155C19.2587 28.7632 21.2796 25.3883 21.199 21.7328C21.199 16.5336 17.3991 12.3028 12.7187 12.3028C8.0383 12.3028 4.23847 16.5336 4.23847 21.7328H4.24198C4.16128 25.3672 6.16116 28.7281 9.39611 30.3909C4.07006 30.8996 0.0036471 35.369 5.43097e-05 40.7189V51.2086C-0.00696242 52.1347 0.666688 52.9241 1.58241 53.0679L2.10168 53.1591V53.1556C5.54708 53.6959 9.0276 53.9695 12.5118 53.973V64.9497C12.5118 65.8794 13.189 66.6757 14.1117 66.816L14.6239 66.8967C18.1431 67.444 21.6972 67.7211 25.2586 67.7246C28.9847 67.7281 32.7038 67.4299 36.3774 66.8265C37.2931 66.6827 37.9668 65.8933 37.9597 64.9672V53.9656H40.0438V64.9494C40.0368 65.8826 40.7175 66.679 41.6402 66.8158L42.1419 66.8964H42.1454C45.6646 67.4437 49.2257 67.7209 52.7873 67.7244C56.5099 67.7279 60.2254 67.4297 63.8989 66.8263C64.8146 66.6824 65.4918 65.8931 65.4883 64.967V53.9723C69.1512 53.9688 72.8071 53.6671 76.4211 53.0742C77.3333 52.9269 78.0035 52.134 78 51.2079V40.7182C77.993 35.3367 73.8773 30.8543 68.5158 30.3909ZM58.6356 21.7328C58.6356 17.5651 61.5899 14.1797 65.2388 14.1797C68.8842 14.1797 71.849 17.565 71.849 21.7328C71.849 25.9005 68.8842 29.2753 65.2388 29.2753C61.5899 29.2753 58.5901 25.8899 58.5901 21.7328H58.6356ZM52.6991 27.9211C56.3445 27.9211 59.3093 31.3065 59.3093 35.4743C59.3093 39.6419 56.3445 43.0168 52.6991 43.0168C49.0501 43.0168 46.1415 39.6314 46.1415 35.5093C46.1415 31.3871 49.0501 27.9211 52.6991 27.9211ZM32.3459 21.7328C32.3459 17.5651 35.3106 14.1797 38.9561 14.1797C42.6015 14.1797 45.5663 17.565 45.5663 21.7328C45.5663 25.9005 42.6015 29.2753 38.9561 29.2753C35.3106 29.2753 32.3459 25.8899 32.3459 21.7328ZM25.2129 27.9211C28.8583 27.9211 31.8161 31.3065 31.8161 35.4743C31.8161 39.6419 28.8619 43.0168 25.2129 43.0168C21.5675 43.0168 18.6027 39.6314 18.6027 35.4743C18.6027 31.3136 21.5675 27.9211 25.2129 27.9211ZM6.10824 21.7328C6.10824 17.5651 9.07302 14.1797 12.7184 14.1797C16.3639 14.1797 19.3216 17.565 19.3216 21.7328C19.3216 25.9005 16.3674 29.2753 12.7184 29.2753C9.07302 29.2753 6.10824 25.8899 6.10824 21.7328ZM12.7746 52.0891C9.30457 52.0996 5.83806 51.84 2.40668 51.3068L1.87688 51.2085V40.7189C1.87688 36.0319 5.66971 32.2326 10.3571 32.2221H15.0832C15.7849 32.2256 16.4866 32.3239 17.1638 32.5098C16.8796 33.471 16.7322 34.4709 16.7357 35.4742C16.655 39.1087 18.6549 42.473 21.8899 44.1393C17.4585 44.5568 13.7882 47.7564 12.7746 52.0891ZM36.0649 64.9569C29.0582 66.104 21.9146 66.1287 14.9015 65.0306L14.3822 64.9324V54.4499C14.3858 49.7665 18.1856 45.9671 22.8695 45.9636H27.585C32.2761 45.9636 36.0758 49.763 36.0828 54.4499L36.0649 64.9569ZM40.2612 52.0891H37.6543C36.6298 47.76 32.9633 44.5641 28.5358 44.1396C31.7602 42.4802 33.7566 39.1334 33.6934 35.5095V34.9797C33.6548 34.1939 33.525 33.4186 33.3075 32.6609C34.3986 32.4399 35.5074 32.3206 36.6196 32.303H41.3456C42.4579 32.2995 43.556 32.524 44.5806 32.9591C44.3525 33.7905 44.2332 34.6465 44.2192 35.5095C44.142 39.1474 46.1419 42.5083 49.3769 44.1746C44.956 44.585 41.2861 47.7704 40.2583 52.089L40.2612 52.0891ZM63.5478 64.9569C56.5447 66.104 49.4012 66.1287 42.3872 65.0306L41.8679 64.9324L41.8644 54.4499C41.8714 49.7629 45.6748 45.9636 50.3622 45.9636H55.0777C59.7652 45.9671 63.5615 49.7665 63.565 54.4499L63.5478 64.9569ZM76.0247 51.2368C72.4284 51.8332 68.7865 52.1314 65.1377 52.1349C64.1412 47.7812 60.4678 44.5608 56.0227 44.1398C59.2436 42.4804 61.2435 39.1337 61.1769 35.5097C61.1804 34.5064 61.033 33.5065 60.7488 32.5453C61.426 32.3594 62.1277 32.2647 62.8294 32.2577H67.5555C72.243 32.2682 76.0357 36.071 76.0357 40.7544L76.0247 51.2368ZM39.8543 72.7802V79.0668C39.8543 79.5825 39.4368 80 38.921 80C38.4052 80 37.9876 79.5825 37.9876 79.0668V72.7802C37.9876 72.2645 38.4052 71.847 38.921 71.847C39.4367 71.847 39.8543 72.2644 39.8543 72.7802ZM21.7574 72.7802L19.961 78.7616C19.8066 79.2563 19.2838 79.5369 18.7891 79.3861C18.2909 79.2352 18.0102 78.709 18.1646 78.2143L19.961 72.2329C20.0311 71.9943 20.196 71.7944 20.4171 71.6786C20.6346 71.5593 20.8942 71.5348 21.1328 71.6084C21.6275 71.7593 21.9082 72.2855 21.7574 72.7802ZM59.7979 77.9722H59.7944C59.8751 78.2108 59.8505 78.4704 59.7312 78.6914C59.6084 78.9089 59.4014 79.0703 59.1558 79.1299C59.0716 79.1369 58.9839 79.1369 58.8962 79.1299C58.4751 79.1404 58.0997 78.8563 57.998 78.4458L56.2717 72.4468H56.2752C56.1314 71.9522 56.4156 71.433 56.9103 71.2891C57.4085 71.1453 57.9278 71.4294 58.0717 71.9276L59.7979 77.9722ZM38.0588 7.21983V0.933204C38.0588 0.417504 38.4763 0 38.9921 0C39.5079 0 39.9254 0.417468 39.9254 0.933204V7.21983C39.9254 7.73553 39.5079 8.15303 38.9921 8.15303C38.4763 8.15303 38.0588 7.73557 38.0588 7.21983ZM18.2176 1.83129C18.0702 1.33664 18.3509 0.813938 18.8456 0.663059C19.0842 0.578863 19.3438 0.599912 19.5649 0.71919C19.7894 0.834962 19.9508 1.04195 20.014 1.28401L21.8104 7.26546C21.9121 7.54963 21.8665 7.86536 21.6876 8.10742C21.5051 8.35299 21.2139 8.48631 20.9122 8.46876C20.4946 8.48279 20.1227 8.20564 20.014 7.80221L18.2176 1.83129ZM56.3452 7.56012L58.0328 1.56115C58.1767 1.0665 58.6959 0.778832 59.1942 0.922661C59.6889 1.0665 59.9731 1.5857 59.8292 2.08389L58.103 8.08286H58.1065C58.0013 8.4898 57.6293 8.77045 57.2083 8.75642C57.1206 8.76695 57.0329 8.76695 56.9487 8.75642C56.6961 8.69679 56.4785 8.5319 56.3557 8.30387C56.2364 8.07584 56.2189 7.80221 56.3101 7.56014L56.3452 7.56012Z" fill="black"/>
</svg>
