<svg width="108" height="80" viewBox="0 0 108 80" fill="none" xmlns="http://www.w3.org/2000/svg">
<path d="M107.893 78.1437L95.5017 48.331C95.3029 47.839 94.817 47.5035 94.2869 47.5035H69.6818C74.5852 38.6916 78.5609 30.1034 78.5609 24.8476C78.5609 11.1378 67.5394 0 54 0C40.4606 0 29.4391 11.1602 29.4391 24.8476C29.4391 30.1034 33.4148 38.6693 38.3182 47.5035H13.7131C13.183 47.5035 12.6971 47.8166 12.4983 48.331L0.107476 78.1437C-0.069221 78.5686 -0.0250468 79.0383 0.217911 79.3961C0.460869 79.7764 0.880524 80 1.32227 80H106.678C107.119 80 107.539 79.7764 107.782 79.3961C108.025 79.0383 108.069 78.5686 107.893 78.1437ZM54 2.68381C66.0816 2.68381 75.9104 12.6363 75.9104 24.8476C75.9104 29.8798 71.4046 39.0718 66.2583 48.1521C66.2583 48.1521 66.2583 48.1744 66.2363 48.1744C65.7062 49.1138 65.1761 50.0308 64.646 50.9477C64.5576 51.0819 64.4914 51.2161 64.403 51.3503C64.3588 51.4398 64.3147 51.5068 64.2484 51.5963C61.9514 55.5326 59.6322 59.3346 57.5781 62.667C57.4235 62.9131 57.2689 63.1814 57.1143 63.4275C55.9437 65.3509 54.8835 67.0953 53.9779 68.6162C53.4257 67.6992 52.8294 66.6928 52.1668 65.5969C51.6146 64.6799 51.0182 63.6958 50.3777 62.667C47.6831 58.2611 44.6351 53.2737 41.7417 48.1521C41.7417 48.1297 41.7196 48.1297 41.7196 48.1074C36.5733 39.0271 32.0675 29.8574 32.0675 24.8253C32.0896 12.6363 41.9184 2.68381 54 2.68381ZM3.31011 77.3385L14.5745 50.2097H39.8201C42.581 55.0405 45.5186 59.849 48.1248 64.1208C48.677 65.0377 49.2292 65.91 49.7372 66.7375C50.952 68.7504 52.0122 70.5172 52.8294 71.9486C53.0723 72.3735 53.5141 72.6195 53.9779 72.6195C54.4417 72.6195 54.8835 72.3735 55.1264 71.9486C56.1866 70.0923 57.6444 67.6992 59.3451 64.9259C59.4997 64.6575 59.6764 64.3892 59.8531 64.0984C60.339 63.2933 60.847 62.4881 61.355 61.6382C61.355 61.6382 61.355 61.6159 61.3771 61.6159C61.598 61.2357 61.8409 60.8778 62.0618 60.4753C62.2827 60.0951 62.5256 59.7148 62.7686 59.3346C62.8128 59.2452 62.879 59.1557 62.9232 59.0663C64.6681 56.2035 66.435 53.2066 68.1578 50.2097H93.4034L104.668 77.3385H3.31011Z" fill="black"/>
<path d="M53.9999 40.9729C62.7685 40.9729 69.9026 33.749 69.9026 24.87C69.9026 15.9911 62.7685 8.76713 53.9999 8.76713C45.2313 8.76713 38.0972 15.9911 38.0972 24.87C38.0972 33.749 45.2313 40.9729 53.9999 40.9729ZM53.9999 11.4509C61.3107 11.4509 67.2522 17.4672 67.2522 24.87C67.2522 32.2729 61.3107 38.2891 53.9999 38.2891C46.6891 38.2891 40.7476 32.2729 40.7476 24.87C40.7476 17.4672 46.6891 11.4509 53.9999 11.4509Z" fill="black"/>
</svg>
