<svg width="68" height="80" viewBox="0 0 68 80" fill="none" xmlns="http://www.w3.org/2000/svg">
<g clip-path="url(#clip0_2269_5233)">
<path d="M9.67369 48.1946C10.205 48.1315 10.5004 47.7235 11.0472 47.5429C12.6176 47.0226 14.0381 47.1767 15.4203 48.1021C18.6258 51.8046 23.2922 55.2121 26.3184 58.9557C27.2259 60.0785 27.4868 60.9078 27.6015 62.3639C27.9446 66.7312 27.8866 73.7509 27.6037 78.1557C27.5155 79.531 26.9754 80.9196 25.8929 79.2067L25.8878 62.1576C25.8018 61.3973 25.477 60.6429 25.0331 60.0271C23.6009 58.0412 16.9415 51.5441 14.9059 49.8958C14.5436 49.6022 14.2159 49.2881 13.7698 49.1142C11.0354 48.0464 8.42221 51.1537 10.4166 53.7428C11.5689 55.2385 16.7762 59.4797 17.0958 60.7155C17.3795 61.8127 16.6461 62.0608 15.7444 61.6388C13.517 58.7428 8.2892 55.753 7.96072 51.9331C7.54185 47.063 8.48321 41.3797 7.9688 36.5764C7.57786 32.9267 2.94527 32.824 2.04432 36.1999C2.37722 42.1033 1.41601 48.8661 2.02081 54.6705C2.41102 58.4148 8.45896 63.7685 10.9494 66.8531C11.9547 68.0985 12.9453 68.9769 13.0967 70.6766C13.3421 73.4302 12.9336 76.5845 13.0445 79.3813C12.8571 80.0088 12.0561 80.1057 11.6461 79.6918C10.7841 78.8206 12.0179 71.1243 10.9979 69.5758C8.45602 66.3753 5.38061 63.4192 2.85341 60.2341C1.25361 58.2174 0.480529 56.9529 0.279911 54.2786C-0.0684151 49.6433 -0.117651 41.3812 0.280646 36.7819C0.576061 33.373 3.67646 30.9995 6.95249 32.4747C7.97542 32.9356 9.67443 34.8106 9.67443 35.9372V48.1946H9.67369Z" fill="black"/>
<path d="M54.9005 70.4719C55.2951 67.6772 62.9083 60.9218 64.8064 57.9869C65.4377 57.0108 65.9006 55.8704 66.0013 54.7042C66.5069 48.8514 65.6045 42.289 65.9984 36.3584C65.4171 32.9429 60.8029 32.8387 60.1143 36.2447C59.2222 40.659 60.5009 47.5796 60.0173 52.3492C59.91 53.4067 59.583 54.0819 58.9481 54.9046C57.1587 57.2229 54.1421 59.3145 52.2446 61.6366C51.8111 62.0116 51.2496 61.878 50.9483 61.412C50.8146 61.1874 50.8073 60.9592 50.8771 60.7126C51.0806 59.989 56.6156 55.1974 57.5717 53.9564C59.8924 50.943 56.537 47.2384 53.1889 49.7901C50.9167 51.5221 45.2796 57.3088 43.3756 59.5956C42.7686 60.3244 42.3953 60.7361 42.3034 61.7217C41.8052 67.0622 42.7766 73.2078 42.3225 78.5821C42.1755 80.3251 40.78 80.4132 40.597 79.0092C39.8952 73.6151 41.1269 66.6711 40.6257 61.1111C40.7572 60.2378 41.2437 59.5237 41.7772 58.8514C43.535 56.6366 50.1532 49.9604 52.3586 48.3208C54.2868 46.8868 56.3143 46.9272 58.3132 48.1954V36.1507C58.3132 35.4007 59.4015 33.6687 60.0151 33.1616C63.1104 30.6032 67.3733 32.6772 67.7069 36.5698C68.1133 41.3026 68.0817 49.9486 67.7069 54.705C67.2572 60.4132 59.2582 65.5394 56.6061 70.4726V79.4261C56.6061 80.0161 55.2032 80.08 54.8997 79.4261C55.1804 76.6512 54.5213 73.1535 54.8997 70.4726L54.9005 70.4719Z" fill="black"/>
<path d="M27.8389 41.0649C27.8389 41.0649 8.84927 8.27754 10.7805 6.5096C12.7117 4.74165 17.2179 11.9741 27.8396 41.0641L27.8389 41.0649Z" fill="black"/>
<path d="M40.375 41.0649C40.375 41.0649 59.3654 8.27754 57.4342 6.5096C55.5029 4.74165 50.9967 11.9741 40.375 41.0641V41.0649Z" fill="black"/>
<path d="M33.9484 31.4898C33.9484 31.4898 36.7805 0.691332 34.7428 0.041105C32.705 -0.609122 31.8452 6.29312 33.9484 31.4898Z" fill="black"/>
</g>
<defs>
<clipPath id="clip0_2269_5233">
<rect width="68" height="80" fill="white"/>
</clipPath>
</defs>
</svg>
