<svg width="80" height="80" viewBox="0 0 80 80" fill="none" xmlns="http://www.w3.org/2000/svg">
<path d="M79.2594 25.3849L72.5928 21.5367V1.48148C72.5928 0.662964 71.9298 0 71.1113 0H60.7404C59.9219 0 59.259 0.662964 59.259 1.48148V13.8444L40.7407 3.16255C40.2814 2.89588 39.7185 2.89588 39.2592 3.16255L0.74074 25.3852C0.281476 25.6482 0 26.1371 0 26.6668V35.5556C0 36.0853 0.281486 36.5742 0.74074 36.8372C1.2 37.1001 1.76294 37.1038 2.22222 36.8372L7.40745 33.8446V69.6296H4.44449C3.62597 69.6296 2.96301 70.2926 2.96301 71.1111V78.5185C2.96301 79.337 3.62597 80 4.44449 80H75.5555C76.374 80 77.037 79.337 77.037 78.5185V71.1111C77.037 70.2926 76.374 69.6296 75.5555 69.6296H72.5926V33.8484L77.7778 36.841C78.0074 36.9706 78.263 37.0373 78.5185 37.0373C78.7741 37.0373 79.0296 36.9706 79.2593 36.8372C79.7185 36.5743 80 36.0854 80 35.5557V26.6668C80 26.1372 79.7186 25.6479 79.2594 25.3849ZM62.2221 2.96306H69.6295V5.92602H62.2221V2.96306ZM62.2221 8.88898H69.6295V19.8297L62.2221 15.5556V8.88898ZM74.0739 72.5932V77.0376H5.92587V72.5932H74.0739ZM53.3332 44.4445H27.0373C26.2188 44.4445 25.5558 45.1075 25.5558 45.926V69.6297H10.3703V32.1371L39.9999 15.041L69.6295 32.1371V69.6297H54.8147V45.926C54.8147 45.1075 54.1517 44.4445 53.3332 44.4445ZM51.8517 47.4075V69.6302H28.5188V47.4075H51.8517ZM77.0364 32.9928L40.7404 12.052C40.5108 11.9187 40.2552 11.852 39.9997 11.852C39.7441 11.852 39.4886 11.9187 39.2589 12.052L2.96291 32.9928V27.5262L39.9994 6.15585L77.0359 27.5224L77.0364 32.9928Z" fill="black"/>
</svg>
