<svg width="32" height="32" viewBox="0 0 32 32" fill="none" xmlns="http://www.w3.org/2000/svg">
<path d="M17.3708 2.66602C18.8708 2.67002 19.6321 2.67802 20.2894 2.69668L20.5481 2.70602C20.8468 2.71668 21.1414 2.73002 21.4974 2.74602C22.9161 2.81268 23.8841 3.03668 24.7334 3.36602C25.6134 3.70468 26.3548 4.16335 27.0961 4.90335C27.7744 5.56966 28.299 6.37598 28.6334 7.26602C28.9628 8.11535 29.1868 9.08335 29.2534 10.5033C29.2694 10.858 29.2828 11.1527 29.2934 11.4527L29.3014 11.7113C29.3214 12.3673 29.3294 13.1287 29.3321 14.6287L29.3334 15.6234V17.37C29.3367 18.3426 29.3265 19.3151 29.3028 20.2873L29.2948 20.546C29.2841 20.846 29.2708 21.1407 29.2548 21.4953C29.1881 22.9153 28.9614 23.882 28.6334 24.7327C28.299 25.6227 27.7744 26.429 27.0961 27.0954C26.4298 27.7736 25.6235 28.2983 24.7334 28.6327C23.8841 28.962 22.9161 29.186 21.4974 29.2527L20.5481 29.2927L20.2894 29.3007C19.6321 29.3193 18.8708 29.3287 17.3708 29.3314L16.3761 29.3327H14.6308C13.6578 29.3361 12.6848 29.3259 11.7121 29.302L11.4534 29.294C11.1369 29.282 10.8205 29.2683 10.5041 29.2527C9.08544 29.186 8.11744 28.962 7.26677 28.6327C6.37721 28.2981 5.57136 27.7734 4.90544 27.0954C4.2267 26.4292 3.70159 25.6228 3.36677 24.7327C3.03744 23.8833 2.81344 22.9153 2.74677 21.4953L2.70677 20.546L2.70011 20.2873C2.67553 19.3151 2.66442 18.3426 2.66677 17.37V14.6287C2.66308 13.6561 2.67286 12.6836 2.69611 11.7113L2.70544 11.4527C2.71611 11.1527 2.72944 10.858 2.74544 10.5033C2.81211 9.08335 3.03611 8.11668 3.36544 7.26602C3.70103 6.37561 4.22707 5.56926 4.90677 4.90335C5.57231 4.22541 6.37769 3.70078 7.26677 3.36602C8.11744 3.03668 9.08411 2.81268 10.5041 2.74602C10.8588 2.73002 11.1548 2.71668 11.4534 2.70602L11.7121 2.69802C12.6844 2.67433 13.6569 2.6641 14.6294 2.66735L17.3708 2.66602ZM16.0001 9.33268C14.232 9.33268 12.5363 10.0351 11.2861 11.2853C10.0358 12.5355 9.33344 14.2312 9.33344 15.9993C9.33344 17.7675 10.0358 19.4632 11.2861 20.7134C12.5363 21.9636 14.232 22.666 16.0001 22.666C17.7682 22.666 19.4639 21.9636 20.7142 20.7134C21.9644 19.4632 22.6668 17.7675 22.6668 15.9993C22.6668 14.2312 21.9644 12.5355 20.7142 11.2853C19.4639 10.0351 17.7682 9.33268 16.0001 9.33268ZM16.0001 11.9993C16.5254 11.9993 17.0456 12.1026 17.5309 12.3036C18.0162 12.5045 18.4572 12.7991 18.8287 13.1705C19.2002 13.5418 19.4949 13.9827 19.696 14.468C19.8971 14.9533 20.0007 15.4734 20.0008 15.9987C20.0009 16.524 19.8975 17.0441 19.6965 17.5295C19.4956 18.0148 19.201 18.4558 18.8297 18.8273C18.4583 19.1988 18.0174 19.4935 17.5321 19.6946C17.0469 19.8957 16.5267 19.9993 16.0014 19.9993C14.9406 19.9993 13.9232 19.5779 13.173 18.8278C12.4229 18.0776 12.0014 17.0602 12.0014 15.9993C12.0014 14.9385 12.4229 13.9211 13.173 13.1709C13.9232 12.4208 14.9406 11.9993 16.0014 11.9993M23.0014 7.33268C22.5594 7.33268 22.1355 7.50828 21.8229 7.82084C21.5104 8.1334 21.3348 8.55732 21.3348 8.99935C21.3348 9.44138 21.5104 9.8653 21.8229 10.1779C22.1355 10.4904 22.5594 10.666 23.0014 10.666C23.4435 10.666 23.8674 10.4904 24.18 10.1779C24.4925 9.8653 24.6681 9.44138 24.6681 8.99935C24.6681 8.55732 24.4925 8.1334 24.18 7.82084C23.8674 7.50828 23.4435 7.33268 23.0014 7.33268Z" fill="#3B4C92"/>
</svg>
