<?xml version="1.0" encoding="utf-8"?>
<!-- Generator: Adobe Illustrator 19.0.0, SVG Export Plug-In . SVG Version: 6.00 Build 0)  -->
<svg version="1.1" id="Capa_1" xmlns="http://www.w3.org/2000/svg" xmlns:xlink="http://www.w3.org/1999/xlink" x="0px" y="0px"
	 viewBox="0 0 2241 1012.7" style="enable-background:new 0 0 2241 1012.7;" xml:space="preserve">
<style type="text/css">
	.st0{clip-path:url(#SVGID_2_);fill:#A9A098;}
	.st1{clip-path:url(#SVGID_2_);fill:#162667;}
</style>
<g>
	<defs>
		<rect id="SVGID_1_" y="0" width="2241" height="1012.7"/>
	</defs>
	<clipPath id="SVGID_2_">
		<use xlink:href="#SVGID_1_"  style="overflow:visible;"/>
	</clipPath>
	<path class="st0" d="M1735,292.4c5.6,0,11.1,1.4,16.4,4.3c5.4,2.9,9.5,7,12.5,12.3c3,5.3,4.5,10.9,4.5,16.7
		c0,5.8-1.5,11.3-4.4,16.6c-2.9,5.3-7.1,9.4-12.4,12.3c-5.3,2.9-10.9,4.4-16.6,4.4c-5.8,0-11.3-1.5-16.6-4.4
		c-5.3-2.9-9.4-7-12.4-12.3c-2.9-5.3-4.4-10.8-4.4-16.6c0-5.8,1.5-11.4,4.5-16.7c3-5.4,7.2-9.5,12.5-12.3
		C1724,293.9,1729.4,292.4,1735,292.4 M1735,296.6c-4.9,0-9.6,1.3-14.3,3.7c-4.7,2.5-8.3,6.1-10.9,10.8c-2.6,4.7-3.9,9.6-3.9,14.6
		c0,5.1,1.3,9.9,3.8,14.5c2.6,4.6,6.2,8.2,10.8,10.8c4.6,2.6,9.5,3.9,14.5,3.9c5.1,0,9.9-1.3,14.5-3.9c4.6-2.6,8.2-6.2,10.8-10.8
		c2.6-4.6,3.9-9.5,3.9-14.5c0-5.1-1.3-9.9-3.9-14.6c-2.6-4.7-6.2-8.3-10.9-10.8C1744.7,297.9,1739.9,296.6,1735,296.6 M1717.2,306.4
		h17c5.7,0,9.7,0.7,12,2.1c3.2,2,4.8,4.7,4.8,8.3c0,2.2-0.7,4.2-2.1,5.9c-1.4,1.7-3.5,3-6.3,3.8l6.4,11.8c0.9,1.7,1.9,3,2.9,3.8
		c0.5,0.4,1.2,0.7,2,0.8v1.6h-11.4l-9.6-17.3h-2.1v9.3c0,2.7,0.3,4.4,1.1,5.1c0.7,0.8,2.2,1.2,4.5,1.3v1.6h-19.9v-1.6
		c1.9,0,3.2-0.3,3.7-1c0.8-0.9,1.2-2.7,1.2-5.4v-22.2c0-2.6-0.3-4.2-0.8-4.9c-0.5-0.7-1.7-1.1-3.4-1.3V306.4z M1730.7,324.8
		c1.1,0.1,1.9,0.2,2.7,0.2c2.1,0,3.8-0.8,5.3-2.3c1.4-1.6,2.2-3.6,2.2-6.2c0-2.6-0.7-4.6-2.1-6c-1.3-1.4-3.5-2.1-6.3-2.1h-1.8V324.8
		z"/>
	<path class="st0" d="M599.7,77l1043.5-0.3c0,0,3.3-11.3,17.9-12.7V38.1h-342.8V0H922.9v38.1h-343v25.9
		C598.6,64.1,599.7,77,599.7,77"/>
	<path class="st0" d="M1060.5,192.4c0-27.9,25.1-51.5,60.3-51.5c36.1,0,59.8,22.6,59.8,51.5V325c19.5,0.3,39,0.7,58.2,1.2v-42.4h8.8
		l2.3-173.2h-8.7V91.9h-239.5v18.8h-8.5l2.4,173.2h8.8v42.3c18.6-0.5,37.3-0.9,56.1-1.2V192.4z"/>
	<path class="st0" d="M941.7,283.9h8.7l4.4-173.2h-8.7V91.9H601.2v268.3c101.8-15.4,216.9-26.3,340.4-31.7V283.9z M701.9,259.7
		h-29.1v-60.8h29.1V259.7z M701.9,188.1h-29.1v-39.3h29.1V188.1z M741.6,259.7h-28.9v-60.8h28.9V259.7z M741.6,188.1h-28.9v-39.3
		h28.9V188.1z M829.9,259.7h-29.2v-60.9h29.2V259.7z M829.9,188.1h-29.2v-39.3h29.2V188.1z M869.7,259.7h-29.2v-60.9h29.2V259.7z
		 M840.5,148.8h29.2v39.3h-29.2V148.8z"/>
	<path class="st0" d="M1639.8,91.9h-343.1v18.8h-8.6l2.7,173.2h8.6v44.6c123.4,5.4,238.5,16.4,340.4,31.7V91.9z M1407.7,258.2h-28.9
		v-60.8h28.9V258.2z M1407.7,186.7h-28.9v-39.4h28.9V186.7z M1447.6,258.2h-29.1v-60.8h29.1V258.2z M1447.6,186.7h-29.1v-39.4h29.1
		V186.7z M1535.6,258.2h-29v-60.8h29V258.2z M1535.6,186.7h-29v-39.4h29V186.7z M1575.6,258.2h-29.2v-60.8h29.2V258.2z
		 M1546.5,147.3h29.2v39.4h-29.2V147.3z"/>
	<path class="st0" d="M390.4,938.8c0,2.6-2,4.6-4.5,4.6H126.9c-2.5,0-4.7-2-4.7-4.6c0-2.6,2.1-4.6,4.7-4.6h258.9
		C388.3,934.3,390.4,936.3,390.4,938.8"/>
	<path class="st0" d="M2118.8,938.8c0,2.6-2,4.6-4.5,4.6h-259c-2.5,0-4.6-2-4.6-4.6c0-2.6,2.1-4.6,4.6-4.6h259
		C2116.8,934.3,2118.8,936.3,2118.8,938.8"/>
	<path class="st1" d="M609.6,905H604l-2.1-17c-3.9-1.9-8.2-2.7-15.4-2.7c-17.8,0-34,22.2-34,56c0,20.7,8,30.3,21.5,30.3
		c7.5,0,12-0.5,16.8-2.3l9.5-17.8h5.8l-5.3,24.2c-7.9,4-17,5.6-29.1,5.6c-21.8,0-34.8-13.5-34.8-39.3c0-43.5,24.1-66.6,51.2-66.6
		c11.5,0,18.3,1.3,25.2,5.5L609.6,905z"/>
	<path class="st1" d="M692.7,979.8h-25.5l1.9-18c-5.1,10.9-16.2,19.8-26.3,19.8c-12.7,0-19.1-8.7-19.1-24.4
		c0-33.4,16.2-55.7,38.2-55.7c7.7,0,13.8,2.9,18.8,8.2l5.8-6.9h6.9l-11.7,67.4l12,4L692.7,979.8z M663.1,912.1
		c-13.6,0-24.9,16.2-24.9,42.7c0,10.6,3.4,14.6,10.7,14.6c10.4,0,20.7-11.7,23.8-29.2l4-22.3C673.1,914.2,668.4,912.1,663.1,912.1"
		/>
	<path class="st1" d="M763.8,926.5h-6.7l-1.1-14.1c-3.4-1.3-6.6-1.6-10.9-1.6c-11.2,0-16.2,3.7-16.2,9.2c0,5.1,2.1,8,10.4,12
		l5.9,2.9c10.8,5.3,15.9,12,15.9,20.9c0,16.4-13.4,25.7-32.8,25.7c-9.5,0-16-1.1-22.5-3.5l3-21.3h6.9l1.6,14c3.7,1,7.2,1.3,12,1.3
		c11.4,0,18.2-4.5,18.2-11.9c0-5.5-2.1-8.7-10-12.5l-5.9-2.9c-11.7-5.8-15.9-11.2-15.9-20.6c0-13.7,11.1-22.6,30.8-22.6
		c8.5,0,14.1,1.3,20.7,4.3L763.8,926.5z"/>
	<path class="st1" d="M850.1,979.8h-25.5l1.9-18c-5.1,10.9-16.2,19.8-26.3,19.8c-12.7,0-19.1-8.7-19.1-24.4
		c0-33.4,16.2-55.7,38.2-55.7c7.7,0,13.8,2.9,18.8,8.2l5.8-6.9h6.9l-11.7,67.4l12,4L850.1,979.8z M820.6,912.1
		c-13.6,0-24.9,16.2-24.9,42.7c0,10.6,3.4,14.6,10.7,14.6c10.4,0,20.7-11.7,23.8-29.2l4-22.3C830.6,914.2,825.9,912.1,820.6,912.1"
		/>
	<path class="st1" d="M921.3,926.5h-6.7l-1.1-14.1c-3.4-1.3-6.6-1.6-10.9-1.6c-11.2,0-16.2,3.7-16.2,9.2c0,5.1,2.1,8,10.4,12
		l5.9,2.9c10.7,5.3,15.9,12,15.9,20.9c0,16.4-13.3,25.7-32.8,25.7c-9.4,0-16.1-1.1-22.5-3.5l3-21.3h6.9l1.6,14c3.7,1,7.2,1.3,12,1.3
		c11.4,0,18.2-4.5,18.2-11.9c0-5.5-2.1-8.7-9.9-12.5l-5.9-2.9c-11.8-5.8-15.9-11.2-15.9-20.6c0-13.7,11.1-22.6,30.8-22.6
		c8.5,0,14.1,1.3,20.7,4.3L921.3,926.5z"/>
	<path class="st1" d="M1029.6,888.8h-6.2l-1.8-10.4c-1.4-0.5-2.7-0.7-4.8-0.7c-6.6,0-11.2,4.7-13,14.3L1002,903h19.8l-1.8,9.8h-19.8
		l-17.7,100h-14l17.5-100h-12.4l1.8-9.8H988l1.9-10.1c2.7-15.8,14-25.4,27.8-25.4c6.1,0,10.4,1.1,15,3.7L1029.6,888.8z"/>
	<path class="st1" d="M1104.2,979.8H1078l2.4-18.1c-6.7,14-20.2,19.7-29.2,19.7c-11.7,0-16.3-5.8-16.3-16.7c0-3.4,0.5-7.4,1.1-10.9
		l7.5-41.3l-11.7-4l1-5.6h26.3l-9,49.3c-0.5,2.7-0.8,5.9-0.8,8c0,7.1,3.1,9.1,8.8,9.1c8.2,0,22.3-8.3,26.2-29.4l6.4-37.1h14.1
		l-11.9,67.3l12.3,4L1104.2,979.8z"/>
	<path class="st1" d="M1197.8,979.8h-26.3l9.1-49.3c0.3-2.6,0.6-5.9,0.6-7.9c0-7.2-3-9.3-8.8-9.3c-8.2,0-22.3,8.3-26,29.5l-6.6,36.9
		h-13.9l11.9-67.3l-12.4-4l1.1-5.6h26l-2.4,18.3c6.7-14.1,20.2-19.9,29.4-19.9c11.7,0,16.2,5.8,16.2,16.7c0,3.4-0.5,7.4-1.1,10.9
		l-7.4,41.3l11.6,4L1197.8,979.8z"/>
	<path class="st1" d="M1231.9,946.8c-0.2,2.1-0.3,4-0.3,5.8c0,11.2,4.8,16.6,12.7,16.6c9.6,0,19.3-3.5,27.6-11.9l4.7,6.7
		c-10,11.9-22.2,17.5-35.6,17.5c-14.2,0-23.3-9.1-23.3-28.1c0-32.1,17.6-52,39-52c15.4,0,22.8,6.1,22.8,17
		C1279.4,933.8,1267.3,942.1,1231.9,946.8 M1254.8,911.5c-10.7,0-18,7.7-21.4,26.5c26.8-4,32.3-8.8,32.3-17.5
		C1265.7,914.7,1262.5,911.5,1254.8,911.5"/>
	<path class="st1" d="M1349.2,918.4c-2.1-1.3-4.8-1.9-9.1-1.9c-6.7,0-17,10.7-20.4,30.3l-5.8,33.1h-14l11.9-67.3l-12.5-4l1.1-5.6h26
		l-2.4,18.8c7.2-14.8,14.7-20.2,21.5-20.2c4.8,0,7.5,0.8,10.1,2.6L1349.2,918.4z"/>
	<path class="st1" d="M1430.8,979.8h-25.5l1.9-18c-5.1,10.9-16.2,19.8-26.3,19.8c-12.7,0-19.1-8.7-19.1-24.4
		c0-33.4,16.2-55.7,38.2-55.7c7.7,0,13.8,2.9,18.8,8.2l5.8-6.9h6.9l-11.7,67.4l12,4L1430.8,979.8z M1401.3,912.1
		c-13.6,0-24.9,16.2-24.9,42.7c0,10.6,3.4,14.6,10.7,14.6c10.4,0,20.7-11.7,23.8-29.2l4-22.3
		C1411.2,914.2,1406.5,912.1,1401.3,912.1"/>
	<path class="st1" d="M1500.8,918.4c-2.1-1.3-4.8-1.9-9.1-1.9c-6.7,0-17,10.7-20.4,30.3l-5.8,33.1h-14l11.9-67.3l-12.5-4l1.1-5.6h26
		l-2.4,18.8c7.2-14.8,14.8-20.2,21.5-20.2c4.8,0,7.5,0.8,10.1,2.6L1500.8,918.4z"/>
	<path class="st1" d="M1543.2,979.8H1516l11.9-67.3l-12.4-4l1.1-5.6h27l-11.9,67.3l12.4,4L1543.2,979.8z M1539.5,885.8
		c-5,0-8.2-3.1-8.2-8c0-6.3,5.6-11.4,11.4-11.4c4.5,0,7.7,3,7.7,7.9C1550.4,881.1,1544.9,885.8,1539.5,885.8"/>
	<path class="st1" d="M1633.1,979.8h-25.5l1.9-18c-5.1,10.9-16.2,19.8-26.3,19.8c-12.7,0-19.1-8.7-19.1-24.4
		c0-33.4,16.2-55.7,38.2-55.7c7.7,0,13.8,2.9,18.7,8.2l5.8-6.9h6.9l-11.8,67.4l12,4L1633.1,979.8z M1603.6,912.1
		c-13.6,0-24.9,16.2-24.9,42.7c0,10.6,3.4,14.6,10.8,14.6c10.4,0,20.7-11.7,23.8-29.2l4-22.3
		C1613.6,914.2,1608.9,912.1,1603.6,912.1"/>
	<path class="st1" d="M1704.3,926.5h-6.7l-1.1-14.1c-3.4-1.3-6.6-1.6-11-1.6c-11.2,0-16.2,3.7-16.2,9.2c0,5.1,2.1,8,10.4,12l5.9,2.9
		c10.8,5.3,15.9,12,15.9,20.9c0,16.4-13.4,25.7-32.8,25.7c-9.5,0-16-1.1-22.4-3.5l3-21.3h6.9l1.6,14c3.7,1,7.2,1.3,12,1.3
		c11.4,0,18.1-4.5,18.1-11.9c0-5.5-2.1-8.7-9.9-12.5l-5.9-2.9c-11.7-5.8-15.9-11.2-15.9-20.6c0-13.7,11.1-22.6,30.8-22.6
		c8.5,0,14.1,1.3,20.7,4.3L1704.3,926.5z"/>
	<path class="st1" d="M495.6,633.5l-0.5,0.1c-11.8,0.7-23.5,1-36.9,1c-21.7,0-40.2-0.4-49.7-1l-0.4,0l-0.4,0.2c-1.9,0.7-3,3.1-3,5.8
		c-0.1,1.1,0.1,4.9,2.9,6.3l16,1.9c20.5,2.3,21,3.2,21,31.9v14c0,10.6-1.6,16.7-3.2,18.8c-3.9,6-17.7,9.6-36.7,9.6
		c-66.2,0-102.8-38.4-102.8-108.2c0-45.4,25-98.5,95.4-98.5c39.6,0,60.9,14.8,69.6,48.1l0.1,0.3l0.4,0.5c1.2,1.2,3.3,1.9,5.7,1.9
		c2.5,0,5.9-0.9,6.9-3.6l0.2-0.4l-0.1-0.5c-3.5-23-5.2-39.8-5.2-50.3v-2.2l-2.1,0.4c-0.5,0.1-1.1,0.1-1.7,0.1
		c-4.1,0-11.7-1.6-17.3-2.8l-2-0.4c-5.4-1.3-24.1-5.3-44.8-5.3c-48.6,0-85.1,13.5-111.9,41.4c-21.7,23.1-31.8,48.3-31.8,79.2
		c0,29.8,10,53.2,32.6,75.7c25.4,25.7,62.6,39.2,107.8,39.2c20.8,0,46.8-4.9,62.8-9.1c5.5-1.4,12.2-3,16.6-3h0.6l0.4-0.4
		c1.1-0.8,1.8-2.1,1.9-3.4c0-1.4-0.4-2.8-1.4-3.7l-0.5-0.4c-5-1.9-7.1-8.8-7.1-22.9v-19.5c0-18.4,0.5-25.9,13.2-27.4l6.1-0.8h0.1
		l0.5-0.4c1.6-1.4,2.5-3.9,2.4-6.6c-0.3-2.4-1.3-4.3-2.9-5.2L495.6,633.5z"/>
	<path class="st1" d="M676.4,719.9l-6.1-1.3c-11.5-2.1-14.2-5.7-18.5-17.3l-31.3-83.3c-5.1-13.5-9.2-25.7-11.9-33.7l-0.3-1.1
		c-1.6-4.6-2.4-7-2.8-8c-1-3-4.3-4.3-8-2.9l-0.8,0.3l-0.3,0.7c-1.6,3.9-7.9,10-13.6,12.3l-1.1,0.4l-0.2,1.1
		c-0.7,6.8-3.4,15.4-8.9,28.8l-33.5,80.2c-7,16.7-10.7,19.7-20.2,21.9l-8.2,1.9l-0.5,0.2c-1.8,1.3-2.9,3.9-2.5,6.6
		c0.2,2.5,1.6,4.6,3.5,5.3l0.5,0.3l0.5-0.1c1.3,0,2.7-0.2,4.3-0.3h0.5c5.3-0.4,12.1-0.7,19.5-0.7c9.8,0,18.7,0.3,27.5,1l0.3-0.1
		c2.2-0.5,3.9-2.3,4.4-4.9c0.4-2.4-0.3-5.8-2.7-7.3l-10-2c-2.3-0.5-3.9-1-4.3-1.7c-0.8-1.4,0.5-5.8,1.8-9.7l8-22.4
		c2.4-7,2.6-7,10.1-7h33.1c7.5,0,7.7,0,10.1,7l8.3,22.7c1.6,4.1,3.3,8.5,2.5,9.9c-0.6,1-3.5,1.5-5.6,1.9l-7.1,1.1l-0.4,0.1
		c-2.1,1-3.5,3.4-3.2,6.3c0.3,3,1.9,5.3,4.2,6l0.4,0.1l0.2-0.1c8.8-0.7,19-1,31.3-1c11,0,19,0.2,28.9,1l0.3-0.1
		c2.3-0.5,4.1-2.5,4.5-5.3C679.7,724.4,678.8,721.3,676.4,719.9 M605.4,661.4c-0.5,0.8-4.4,0.8-6.3,0.8h-24.1c-1.1,0-4.5,0-4.9-0.5
		c-0.3-0.6,0.5-2.9,2.1-7.1l12.5-31c2.1-4.4,3.3-7.4,4.1-9.3c1.1,2.2,2.4,5.4,4,9.9l10.8,29.7C604.3,655.6,606.1,660.5,605.4,661.4"
		/>
	<path class="st1" d="M855.7,722.6l-0.7-0.1c-6.6-0.4-12.4-2.7-17.4-6.9c-9.6-8-25.2-24-43.9-55.4c-0.1-0.1-1-1.7-0.6-2.6
		c21.2-7.7,31.9-20.8,31.9-38.9c0-38.8-37.2-43.7-69.5-43.7c-19.4,0-39.2,0.6-58.5,2.1c-2.9,0.9-3.8,4.1-3.6,6.9
		c0.2,3.1,1.8,5.3,3.9,5.6l9.8,1.4c5.9,0.8,6.7,4.1,6.7,27.8v73.9c0,22.9-0.8,23.1-14.9,26.1l-5.6,1.2c-2.1,1-3.5,3.4-3.3,6.3
		c0.2,2.9,1.9,5.3,4.3,6l0.3,0.1l0.3-0.1c12.4-0.7,23.3-1,34.1-1c10.5,0,21.9,0.3,36.9,1l0.4,0.1l0.3-0.1c1.9-0.7,3.2-2.6,3.5-5.2
		c0.3-2.2-0.2-5.3-2.4-6.9l-8.8-1.4c-13.4-1.9-14.8-2.1-14.8-26v-24.7c0-3.6,0-3.7,7.8-3.7c4.2,0,9.9,0.8,12.4,4.7
		c1.5,2.4,3.2,5,5,7.6l0.6,1.1c6.4,9.7,13.4,20.6,20,29.1c15.5,19.8,28.7,26.8,50.3,26.8c6.4,0,11.6-0.7,15.3-1.9l0.4-0.2
		c1.1-0.8,1.7-2.2,1.8-3.7c0.2-1.9-0.4-3.6-1.6-4.7L855.7,722.6z M792.3,619.8c0,21.9-9.6,31.2-32.6,31.2c-15.5,0-15.5,0-15.5-6.8
		v-47.4c0-7.1,0.5-7.9,13.4-7.9C781.7,588.9,792.3,604.4,792.3,619.8"/>
	<path class="st1" d="M1006.7,684.6c-2.7,0-5,1.3-6.2,3.5c-4.4,10.2-17.7,34-48.5,34c-30.2,0-60.8-24.5-60.8-71.3
		c0-48.5,31.1-65.8,57.8-65.8c25.4,0,40.3,10.9,46.6,34.3l0.3,0.4l0.1,0.2c1.3,1.5,3.5,2.4,5.7,2.4c2.8,0,5.4-1.4,6.5-3.5l0.2-0.5
		l-0.1-0.6c-2.1-14.2-3.1-31.2-3.1-38.1v-1.9h-1.8c-0.5,0-2.7-0.4-4.9-0.9l-0.6-0.1c-8.8-2-25.4-5.6-42.3-5.6
		c-27.4,0-51.9,7.3-69.2,20.6c-13.7,10.7-29.9,30.5-29.9,64.3c0,25.6,12.3,48.8,33.9,63.6c16.1,11,36.6,16.4,62.5,16.4
		c17.8,0,29.7-3.1,38.6-5.4c3.3-0.8,6.1-1.5,8.8-2l0.7-0.1l0.5-0.7c4.5-6.6,10-22.9,11.9-38.6v-0.5l-0.3-0.5
		C1011.9,686,1009.4,684.6,1006.7,684.6"/>
	<path class="st1" d="M1104.7,588.5l6.8-1.1l0.6-0.3c2.4-1.6,2.7-4.7,2.4-6.8c-0.3-2.6-1.6-4.5-3.5-5.2l-0.4-0.2l-0.3,0.1
		c-15.2,0.7-25.5,1-35.5,1c-10.1,0-20.3-0.3-35.5-1l-0.3-0.1l-0.4,0.2c-1.9,0.6-3.1,2.6-3.5,5.2c-0.3,2.1,0,5.2,2.3,6.8l7.4,1.4
		c13.7,2.2,14.8,2.4,14.8,25.9v78.2c0,23.6-1.1,23.9-14.8,26l-6.7,1.1l-0.7,0.3c-2.3,1.5-2.7,4.7-2.3,6.9c0.3,2.5,1.6,4.5,3.5,5.2
		l0.4,0.1l0.3-0.1c14.2-0.7,24.9-1,35.5-1c10.8,0,22,0.3,35.5,1l0.3,0.1l0.4-0.1c1.9-0.7,3.2-2.7,3.5-5.2c0.3-2.2-0.1-5.4-2.4-6.9
		l-7.2-1.4c-13.8-2.1-14.9-2.4-14.9-26v-78.2C1090,590.9,1091,590.8,1104.7,588.5"/>
	<path class="st1" d="M1291.6,719.9l-6.2-1.3c-11.5-2.1-14.4-5.7-18.5-17.3l-31.5-83.3c-5.1-13.5-9.1-25.7-11.8-33.7l-0.3-1.1
		c-1.5-4.6-2.4-7-2.8-8c-1-3-4.3-4.3-7.9-2.9l-0.8,0.3l-0.4,0.7c-1.5,3.9-7.8,10-13.5,12.3l-1.1,0.4l-0.1,1.1
		c-0.7,6.8-3.3,15.5-8.9,28.8l-33.4,80.2c-7,16.7-10.6,19.7-20.3,21.9l-8.1,1.8l-0.6,0.3c-1.8,1.3-2.8,3.9-2.6,6.6
		c0.4,2.4,1.6,4.6,3.6,5.3l0.5,0.3l0.4-0.1c1.4,0,2.9-0.2,4.4-0.3h0.4c5.3-0.4,12.1-0.7,19.6-0.7c9.7,0,18.7,0.3,27.5,1l0.4-0.1
		c2.2-0.5,3.8-2.3,4.2-4.9c0.5-2.4-0.1-5.8-2.6-7.3l-10-2c-2.3-0.5-3.9-1-4.3-1.7c-0.8-1.4,0.5-5.8,1.9-9.7l7.9-22.4
		c2.5-7,2.7-7,10.2-7h33.2c7.4,0,7.5,0,9.9,7l8.4,22.7c1.6,4.1,3.3,8.5,2.6,9.9c-0.5,0.8-2.2,1.3-5.6,1.9l-7,1.1l-0.4,0.1
		c-2.2,1-3.5,3.4-3.2,6.3c0.2,3,1.8,5.3,4.1,6l0.4,0.1l0.3-0.1c8.8-0.7,18.9-1,31.2-1c11,0,19,0.2,29,1l0.3-0.1
		c2.4-0.5,4-2.5,4.5-5.3C1294.7,724.5,1294,721.3,1291.6,719.9 M1220.6,661.4c-0.5,0.8-4.5,0.8-6.3,0.8h-24.1c-1.1,0-4.5,0-4.9-0.5
		c-0.3-0.6,0.4-2.9,2.1-7.1l12.6-31c2.1-4.7,3.3-7.6,4.1-9.3c1.1,2.2,2.4,5.4,4,9.9l10.7,29.7
		C1220.5,658.3,1221.1,660.8,1220.6,661.4"/>
	<path class="st1" d="M1559.9,676.8c-1.2,0-2.8,0.2-4.1,1.2l-0.5,0.8c-6.2,16.1-15,29.2-22.2,33.5c-5.2,3-12.5,4.4-41.6,4.4
		c-25.7,0-32.8-3.6-36.6-7.5c-5.8-6.1-6.8-14.9-6.8-36.3V561c0-36.4,0.6-40.5,19.5-42l8.5-0.7l0.7-0.3h0.2c2.2-1.5,2.2-4.6,2.1-5.9
		c-0.1-2.2-1-5.1-2.9-6.2l-0.5-0.1h-0.4c-16.6,0.7-28.9,1-42.8,1c-13.4,0-24.9-0.3-45.3-1h-0.5l-0.4,0.1c-2.1,1-2.7,3.8-2.9,6.2
		c-0.2,1.6,0,4.5,2,5.9l0.3,0.1l9.3,0.9c20.3,1.6,20.9,5.1,20.9,42v116c0,36.4-0.6,39.8-19.3,41.7l-11.2,1.1l-0.4,0.5
		c-1.7,1.8-2,4.8-1.7,7c0.4,2.4,1.4,4,2.9,4.8l0.4,0.3l0.5-0.1c19.9-0.7,30.8-1,45.3-1h32.1c38.3,0,70,0.3,86.6,1h1.2l0.5-1
		c5.2-9.9,14.9-45.8,14.9-49.7C1567.6,678.2,1563.1,676.8,1559.9,676.8"/>
	<path class="st1" d="M1665,561.4c0.2,0,0.6-0.1,0.6-0.1l0.7-0.1l34.6-33.2c4.5-4.9,7.5-8.8,7.5-11.8c0-3.1-2-7.5-7.7-10.8
		c-4.6-3.8-8.2-4.7-10.4-4.7c-0.5,0-0.8,0.1-0.8,0.1c-2.9,0-5.9,2.8-9.1,8.6l-24.1,44.6l-0.2,0.3l0.2,0.7
		C1657.2,558.7,1661.6,561.4,1665,561.4"/>
	<path class="st1" d="M1670.2,571.2c-50.9,0-87.9,35.2-87.9,83.8c0,47.7,36.2,81,87.9,81c50.2,0,86.6-35,86.6-83.2
		C1756.9,612.2,1730.1,571.2,1670.2,571.2 M1672.1,722.1c-38,0-54.9-36.5-54.9-72.7c0-47.4,26.2-64.4,50.7-64.4
		c37.6,0,54.2,36.7,54.2,73.1C1722,717.5,1683.8,722.1,1672.1,722.1"/>
	<path class="st1" d="M1880.3,581c-11.5-4.1-25-6-42.5-6c-18.1,0-35.8,0.6-55.9,2.1l-0.4,0c-2.7,0.9-4,3.9-4,6.5
		c0,2.9,1.5,5.1,4,5.9l10.4,1.7c6,1.1,6.7,3.9,6.7,27.5v73.9c0,22.9-0.8,23.1-14.9,26.1l-5.4,1.1l-0.5,0.3c-2.3,1.5-2.7,4.7-2.4,6.9
		c0.5,2.6,1.7,4.5,3.5,5.2l0.4,0.1l0.5-0.1c12.3-0.7,23.1-1,34-1c10.4,0,21.9,0.3,36.8,1l0.4,0.1l0.5-0.1c1.7-0.7,3.2-2.7,3.4-5.2
		c0.3-2.2-0.1-5.3-2.3-6.9l-8.9-1.4c-13.2-1.9-14.6-2.1-14.6-26v-93.8c0-9.4,0-10,12.3-10c22.8,0,36.1,12.3,36.1,33.7
		c0,21.2-10,33.5-30.9,37.9l-0.4,0.1l-0.5,0.4c-2.2,2.2-2,6.5,0.4,9l0.4,0.5l0.7,0c1,0.1,2.1,0.2,3.5,0.2c8.3,0,19.8-2.1,29.1-5.4
		c11.4-4.1,30.2-14.7,30.2-41.6C1909.9,594,1887.3,583.6,1880.3,581"/>
	<path class="st1" d="M2061.2,686.8c-2.1,0-4.1,0.7-5.5,2.2l-0.3,0.5c-9.6,26.4-21.5,27.7-43.7,27.7c-20,0-25.3-1.6-27.7-4.2
		c-1.6-1.9-3.4-7.6-3.4-23.9V664c0-6.1,0-6.1,4.7-6.1h16.4c18.1,0,18.7,2.5,21.2,11.8l1.8,6.7l0.3,0.5c1,1.6,3.1,2.4,5.4,2.4
		c2.7,0,5.2-1.3,6.5-3.2l0.3-0.5l-0.2-0.6c-0.6-10.1-0.6-16.3-0.6-25c0-8,0-14.2,0.6-24.3l0.2-0.7l-0.3-0.4c-1.3-2-3.8-3.3-6.5-3.3
		c-2.3,0-4.3,0.9-5.4,2.4l-2.1,7.2c-2.5,9.3-3.1,11.8-21.2,11.8h-16.4c-4.7,0-4.7,0-4.7-5.1v-38.7c0-9.2,0-9.2,10.7-9.2h15.3
		c8.1,0,23.1,0,28.1,7.5c1.6,2.4,3.8,6.5,6.1,16.3l0.3,0.5l0.1,0.2c1.3,1.4,3.3,2.3,5.7,2.3c3,0,5.5-1.4,6.6-3.4l0.1-0.5l0-0.5
		c-1.9-15.5-3.5-31.5-3.8-35.5l-0.1-2.1l-2.1,0.5c-2.9,0.6-15.3,1-32,1h-49.6c-11.5,0-22.5-0.4-32.3-1l-0.6-0.1l-0.3,0.2
		c-2,1-3.3,3.5-3.4,6.3c-0.2,2.6,0.8,4.7,2.6,5.7l5.3,1.3c12.2,2.5,13.1,2.7,13.1,25.9v78.2c0,24.3-1.7,24.5-14.7,26l-9.6,1.1
		l-0.6,0.2l-0.1,0.1c-2.2,1.5-2.6,4.6-2.4,6.9c0.3,2.5,1.6,4.5,3.5,5.2l0.4,0.1l0.4-0.1c16.1-0.6,27.1-1,38.6-1h30.7
		c18.2,0,36.6,0.3,59.2,1h1.2l0.5-1c4-7.1,9-25.2,10.7-39.4v-0.4l0-0.4C2066.9,688.1,2063.9,686.8,2061.2,686.8"/>
	<path class="st1" d="M2240.8,689c-1.1-2.3-4.5-4-7.5-4c-1.8,0-3.4,0.6-4.7,1.9l-0.3,0.4l-0.2,0.2c-3.5,12.6-9.1,20.7-16.4,24.3
		c-7.4,3.9-18.4,5.4-39.2,5.4c-18.6,0-30.8-0.7-35.1-1c-5.3-0.4-5.9-1.1-5.9-1.1h-0.1c0.2-0.8,2.8-5.4,18.7-26
		c1.9-2.4,3.4-4.3,4-5.2l40.1-54.7c16.1-21.9,33.3-40.9,38.5-45.9l0.4-0.4c0.7-1.3,0.7-3,0.1-4.5c-0.7-1.6-2-2.9-3.6-3.5l-0.4-0.1
		l-0.5,0.1c-5.4,0.6-12.6,1-25.2,1h-70.8c-13.9,0-19.7-0.5-19.7-5.1v-0.5l-0.2-0.5c-0.9-1.4-2.7-2.3-4.7-2.3c-2.1,0-4,1.1-4.8,3.4
		c-2.1,13.6-5.5,26.5-10,42.9l-0.2,0.7l0.3,0.7c1.1,2.5,4,4.2,7.1,4.2c2,0,3.7-0.6,5.1-2l0.4-0.6c8.2-23.4,16.9-27,42.8-27h31.8
		c6.4,0,7.1,0.8,7.2,0.8c0,0,0.2,0.8-1.8,3.5c-1.4,2-5.4,7.4-9.6,13.1l-1.3,1.9c-4.4,5.9-9.3,12.7-11,14.9l-52.3,70.9
		c-6.9,9.6-18.9,24.1-24,28.5c-1,1.2-1.3,2.8-1.2,4.4c0.5,1.7,1.4,3.1,2.8,4l0.6,0.3l0.7-0.1c4.7-0.7,13.4-1,26.2-1h61
		c24.2,0,41.3,0.3,50.9,1l1.1,0.1l0.6-0.9c3.9-6,8.1-22.6,10.7-41.2v-0.7L2240.8,689z"/>
	<path class="st1" d="M1070.7,561.4h0.1c0.2,0,0.4-0.1,0.7-0.1l0.7-0.1l34.5-33.2c4.5-4.9,7.5-8.8,7.5-11.8c0-3.1-2-7.5-7.6-10.8
		c-4.7-3.8-8.3-4.7-10.4-4.7c-0.4,0-0.9,0.1-1,0.1c-2.9,0-5.9,2.8-9,8.6L1062,554l-0.2,0.3l0.3,0.8
		C1063,558.7,1067.4,561.4,1070.7,561.4"/>
	<path class="st1" d="M115.1,505.3l-0.5-0.3l-0.6,0c-13.9,0.7-25.2,1-37.7,1c-13.4,0-24-0.3-44.4-1l-0.6,0l-0.5,0.3
		c-2.1,1-3,3.9-3.1,6.3c-0.2,2.8,0.6,5,2.2,6l0.5,0.3l8.8,0.7c17.1,1.5,20.8,3,20.8,40.1v125.4c0,30-2.2,69.6-8.4,82.2
		c-2.5,4.9-6.1,7.3-11.2,7.3c-4.8,0-9.6-1.2-13.3-2.2c-4.6-1.4-8.8-2.1-12.9-2.1C5.4,769.3,0,780.7,0,786.9c0,4.3,2.9,9.3,16.6,9.3
		c29.1,0,55-18.9,67.5-49.2c6.9-16.7,7.8-42.3,7.8-65.2V558.7c0-35.6,1-37.8,18.2-40.1l5.5-0.8l0.5-0.3c1.6-1,2.4-3.2,2.2-6
		C118.1,509.2,117.2,506.3,115.1,505.3"/>
	<path class="st1" d="M170.9,691.7c-11.9,0-20.9,9.4-20.9,21.9c0,13.4,10.8,20.6,20.9,20.6c12.3,0,20.9-8.5,20.9-20.6
		C191.7,701.1,182.8,691.7,170.9,691.7"/>
</g>
</svg>
