<svg width="134" height="61" viewBox="0 0 134 61" fill="none" xmlns="http://www.w3.org/2000/svg">
<g clip-path="url(#clip0_1100_4351)">
<mask id="mask0_1100_4351" style="mask-type:luminance" maskUnits="userSpaceOnUse" x="0" y="0" width="134" height="61">
<path d="M134 0H0V61H134V0Z" fill="white"/>
</mask>
<g mask="url(#mask0_1100_4351)">
<path d="M103.744 17.6127C104.079 17.6127 104.408 17.6971 104.725 17.8717C105.048 18.0464 105.293 18.2934 105.472 18.6126C105.652 18.9319 105.741 19.2692 105.741 19.6186C105.741 19.9679 105.652 20.2992 105.478 20.6185C105.305 20.9377 105.054 21.1847 104.737 21.3594C104.42 21.534 104.085 21.6244 103.744 21.6244C103.397 21.6244 103.069 21.534 102.752 21.3594C102.435 21.1847 102.19 20.9377 102.01 20.6185C101.837 20.2992 101.747 19.9679 101.747 19.6186C101.747 19.2692 101.837 18.9319 102.016 18.6126C102.196 18.2874 102.447 18.0404 102.764 17.8717C103.086 17.7031 103.409 17.6127 103.744 17.6127ZM103.744 17.8657C103.451 17.8657 103.17 17.944 102.889 18.0886C102.608 18.2392 102.393 18.456 102.237 18.7391C102.082 19.0222 102.004 19.3174 102.004 19.6186C102.004 19.9258 102.082 20.2149 102.231 20.492C102.387 20.769 102.602 20.9859 102.877 21.1425C103.152 21.2991 103.445 21.3774 103.744 21.3774C104.049 21.3774 104.336 21.2991 104.611 21.1425C104.886 20.9859 105.102 20.769 105.257 20.492C105.412 20.2149 105.49 19.9197 105.49 19.6186C105.49 19.3114 105.412 19.0222 105.257 18.7391C105.102 18.456 104.886 18.2392 104.605 18.0886C104.324 17.944 104.037 17.8657 103.744 17.8657ZM102.68 18.456H103.696C104.037 18.456 104.276 18.4982 104.414 18.5825C104.605 18.703 104.701 18.8656 104.701 19.0825C104.701 19.215 104.659 19.3355 104.575 19.4379C104.492 19.5403 104.366 19.6186 104.199 19.6667L104.581 20.3775C104.635 20.4799 104.695 20.5582 104.755 20.6064C104.785 20.6305 104.827 20.6486 104.874 20.6546V20.751H104.193L103.619 19.7089H103.493V20.2691C103.493 20.4317 103.511 20.5341 103.559 20.5763C103.601 20.6245 103.69 20.6486 103.828 20.6546V20.751H102.638V20.6546C102.752 20.6546 102.829 20.6365 102.859 20.5944C102.907 20.5402 102.931 20.4317 102.931 20.2691V18.9319C102.931 18.7753 102.913 18.6789 102.883 18.6367C102.853 18.5946 102.782 18.5705 102.68 18.5584V18.456ZM103.487 19.5643C103.553 19.5704 103.601 19.5764 103.649 19.5764C103.774 19.5764 103.876 19.5282 103.965 19.4379C104.049 19.3415 104.097 19.221 104.097 19.0644C104.097 18.9078 104.055 18.7873 103.971 18.703C103.894 18.6187 103.762 18.5765 103.595 18.5765H103.487V19.5643Z" fill="white"/>
</g>
<mask id="mask1_1100_4351" style="mask-type:luminance" maskUnits="userSpaceOnUse" x="0" y="0" width="134" height="61">
<path d="M134 0H0V61H134V0Z" fill="white"/>
</mask>
<g mask="url(#mask1_1100_4351)">
<path d="M35.8587 4.6381L98.2545 4.62003C98.2545 4.62003 98.4519 3.93937 99.3249 3.85504V2.29495H78.8272V0H55.1844V2.29495H34.6748V3.85504C35.793 3.86106 35.8587 4.6381 35.8587 4.6381Z" fill="white"/>
</g>
<mask id="mask2_1100_4351" style="mask-type:luminance" maskUnits="userSpaceOnUse" x="0" y="0" width="134" height="61">
<path d="M134 0H0V61H134V0Z" fill="white"/>
</mask>
<g mask="url(#mask2_1100_4351)">
<path d="M63.4119 11.5892C63.4119 9.90866 64.9127 8.48711 67.0175 8.48711C69.1761 8.48711 70.5932 9.84843 70.5932 11.5892V19.5764C71.7592 19.5945 72.9252 19.6185 74.0733 19.6487V17.0947H74.5995L74.737 6.66199H74.2168V5.5356H59.896V6.66802H59.3877L59.5312 17.1007H60.0574V19.6487C61.1696 19.6185 62.2877 19.5945 63.4119 19.5764V11.5892Z" fill="white"/>
</g>
<mask id="mask3_1100_4351" style="mask-type:luminance" maskUnits="userSpaceOnUse" x="0" y="0" width="134" height="61">
<path d="M134 0H0V61H134V0Z" fill="white"/>
</mask>
<g mask="url(#mask3_1100_4351)">
<path d="M56.3083 17.1007H56.8286L57.0917 6.66802H56.5714V5.5356H35.9482V21.6967C42.0353 20.769 48.9177 20.1125 56.3024 19.7872V17.1007H56.3083ZM41.9696 15.643H40.2295V11.9807H41.9696V15.643ZM41.9696 11.3302H40.2295V8.96297H41.9696V11.3302ZM44.3434 15.643H42.6154V11.9807H44.3434V15.643ZM44.3434 11.3302H42.6154V8.96297H44.3434V11.3302ZM49.6233 15.643H47.8773V11.9747H49.6233V15.643ZM49.6233 11.3302H47.8773V8.96297H49.6233V11.3302ZM52.0031 15.643H50.2571V11.9747H52.0031V15.643ZM50.2571 8.96297H52.0031V11.3302H50.2571V8.96297Z" fill="white"/>
</g>
<mask id="mask4_1100_4351" style="mask-type:luminance" maskUnits="userSpaceOnUse" x="0" y="0" width="134" height="61">
<path d="M134 0H0V61H134V0Z" fill="white"/>
</mask>
<g mask="url(#mask4_1100_4351)">
<path d="M98.0513 5.5356H77.5357V6.66802H77.0215L77.1829 17.1007H77.6972V19.7872C85.0758 20.1125 91.9582 20.7751 98.0513 21.6967V5.5356ZM84.1729 15.5527H82.4449V11.8904H84.1729V15.5527ZM84.1729 11.2459H82.4449V8.87262H84.1729V11.2459ZM86.5587 15.5527H84.8187V11.8904H86.5587V15.5527ZM86.5587 11.2459H84.8187V8.87262H86.5587V11.2459ZM91.8207 15.5527H90.0866V11.8904H91.8207V15.5527ZM91.8207 11.2459H90.0866V8.87262H91.8207V11.2459ZM94.2125 15.5527H92.4665V11.8904H94.2125V15.5527ZM92.4724 8.87262H94.2185V11.2459H92.4724V8.87262Z" fill="white"/>
</g>
<mask id="mask5_1100_4351" style="mask-type:luminance" maskUnits="userSpaceOnUse" x="0" y="0" width="134" height="61">
<path d="M134 0H0V61H134V0Z" fill="white"/>
</mask>
<g mask="url(#mask5_1100_4351)">
<path d="M23.3436 56.5486C23.3436 56.7052 23.224 56.8257 23.0745 56.8257H7.58768C7.43819 56.8257 7.30664 56.7052 7.30664 56.5486C7.30664 56.392 7.43221 56.2715 7.58768 56.2715H23.0685C23.218 56.2776 23.3436 56.398 23.3436 56.5486Z" fill="white"/>
</g>
<mask id="mask6_1100_4351" style="mask-type:luminance" maskUnits="userSpaceOnUse" x="0" y="0" width="134" height="61">
<path d="M134 0H0V61H134V0Z" fill="white"/>
</mask>
<g mask="url(#mask6_1100_4351)">
<path d="M126.693 56.5486C126.693 56.7052 126.573 56.8257 126.424 56.8257H110.937C110.788 56.8257 110.662 56.7052 110.662 56.5486C110.662 56.392 110.788 56.2716 110.937 56.2716H126.424C126.573 56.2776 126.693 56.398 126.693 56.5486Z" fill="white"/>
</g>
<mask id="mask7_1100_4351" style="mask-type:luminance" maskUnits="userSpaceOnUse" x="0" y="0" width="134" height="61">
<path d="M134 0H0V61H134V0Z" fill="white"/>
</mask>
<g mask="url(#mask7_1100_4351)">
<path d="M36.4506 54.5127H36.1157L35.9902 53.4887C35.757 53.3742 35.4999 53.3261 35.0693 53.3261C34.005 53.3261 33.0363 54.6633 33.0363 56.6992C33.0363 57.9461 33.5147 58.5243 34.3219 58.5243C34.7704 58.5243 35.0394 58.4942 35.3264 58.3858L35.8945 57.3136H36.2413L35.9244 58.7713C35.452 59.0122 34.9079 59.1086 34.1844 59.1086C32.8808 59.1086 32.1035 58.2955 32.1035 56.7414C32.1035 54.1212 33.5446 52.7297 35.165 52.7297C35.8526 52.7297 36.2592 52.808 36.6718 53.061L36.4506 54.5127Z" fill="white"/>
</g>
<mask id="mask8_1100_4351" style="mask-type:luminance" maskUnits="userSpaceOnUse" x="0" y="0" width="134" height="61">
<path d="M134 0H0V61H134V0Z" fill="white"/>
</mask>
<g mask="url(#mask8_1100_4351)">
<path d="M41.4198 59.0183H39.895L40.0086 57.934C39.7037 58.5906 39.04 59.1267 38.436 59.1267C37.6766 59.1267 37.2939 58.6026 37.2939 57.657C37.2939 55.6451 38.2626 54.3019 39.5781 54.3019C40.0385 54.3019 40.4033 54.4766 40.7022 54.7958L41.0491 54.3802H41.4616L40.762 58.44L41.4796 58.681L41.4198 59.0183ZM39.6499 54.9404C38.8366 54.9404 38.161 55.9162 38.161 57.5124C38.161 58.1509 38.3643 58.3918 38.8008 58.3918C39.4226 58.3918 40.0385 57.6871 40.2239 56.633L40.4631 55.2897C40.2478 55.0669 39.9668 54.9404 39.6499 54.9404Z" fill="white"/>
</g>
<mask id="mask9_1100_4351" style="mask-type:luminance" maskUnits="userSpaceOnUse" x="0" y="0" width="134" height="61">
<path d="M134 0H0V61H134V0Z" fill="white"/>
</mask>
<g mask="url(#mask9_1100_4351)">
<path d="M45.6712 55.8077H45.2706L45.2048 54.9584C45.0015 54.8801 44.8102 54.8621 44.5531 54.8621C43.8834 54.8621 43.5844 55.0849 43.5844 55.4162C43.5844 55.7234 43.71 55.8981 44.2062 56.139L44.559 56.3137C45.2048 56.633 45.5098 57.0365 45.5098 57.5726C45.5098 58.5605 44.7085 59.1207 43.5485 59.1207C42.9805 59.1207 42.5918 59.0544 42.2031 58.9098L42.3825 57.6268H42.7951L42.8908 58.4701C43.112 58.5304 43.3213 58.5484 43.6083 58.5484C44.29 58.5484 44.6966 58.2774 44.6966 57.8316C44.6966 57.5003 44.571 57.3076 44.0986 57.0787L43.7458 56.904C43.0462 56.5547 42.7951 56.2294 42.7951 55.6632C42.7951 54.838 43.4588 54.3019 44.6368 54.3019C45.145 54.3019 45.4799 54.3802 45.8745 54.5609L45.6712 55.8077Z" fill="white"/>
</g>
<mask id="mask10_1100_4351" style="mask-type:luminance" maskUnits="userSpaceOnUse" x="0" y="0" width="134" height="61">
<path d="M134 0H0V61H134V0Z" fill="white"/>
</mask>
<g mask="url(#mask10_1100_4351)">
<path d="M50.8319 59.0183H49.3071L49.4207 57.9341C49.1158 58.5906 48.4521 59.1267 47.8481 59.1267C47.0887 59.1267 46.7061 58.6027 46.7061 57.657C46.7061 55.6451 47.6747 54.3019 48.9902 54.3019C49.4506 54.3019 49.8154 54.4766 50.1144 54.7958L50.4612 54.3802H50.8737L50.1741 58.44L50.8917 58.681L50.8319 59.0183ZM49.0679 54.9404C48.2547 54.9404 47.5791 55.9162 47.5791 57.5124C47.5791 58.1509 47.7824 58.3918 48.2189 58.3918C48.8407 58.3918 49.4566 57.6871 49.642 56.633L49.8812 55.2897C49.6659 55.0669 49.3849 54.9404 49.0679 54.9404Z" fill="white"/>
</g>
<mask id="mask11_1100_4351" style="mask-type:luminance" maskUnits="userSpaceOnUse" x="0" y="0" width="134" height="61">
<path d="M134 0H0V61H134V0Z" fill="white"/>
</mask>
<g mask="url(#mask11_1100_4351)">
<path d="M55.0892 55.8078H54.6886L54.6228 54.9584C54.4195 54.8801 54.2281 54.8621 53.971 54.8621C53.3013 54.8621 53.0024 55.0849 53.0024 55.4162C53.0024 55.7234 53.1279 55.8981 53.6242 56.139L53.977 56.3137C54.6168 56.633 54.9277 57.0365 54.9277 57.5726C54.9277 58.5605 54.1325 59.1207 52.9665 59.1207C52.4044 59.1207 52.0038 59.0544 51.6211 58.9099L51.8005 57.6269H52.2131L52.3087 58.4701C52.53 58.5304 52.7393 58.5484 53.0263 58.5484C53.7079 58.5484 54.1145 58.2774 54.1145 57.8317C54.1145 57.5004 53.989 57.3076 53.5226 57.0787L53.1698 56.904C52.4642 56.5547 52.219 56.2294 52.219 55.6632C52.219 54.838 52.8828 54.3019 54.0607 54.3019C54.569 54.3019 54.9038 54.3802 55.2985 54.5609L55.0892 55.8078Z" fill="white"/>
</g>
<mask id="mask12_1100_4351" style="mask-type:luminance" maskUnits="userSpaceOnUse" x="0" y="0" width="134" height="61">
<path d="M134 0H0V61H134V0Z" fill="white"/>
</mask>
<g mask="url(#mask12_1100_4351)">
<path d="M61.5646 53.5369H61.1939L61.0862 52.9104C61.0025 52.8803 60.9248 52.8683 60.7992 52.8683C60.4046 52.8683 60.1295 53.1514 60.0219 53.7296L59.9143 54.3922H61.0982L60.9906 54.9825H59.8066L58.7483 61.006H57.9111L58.9575 54.9825H58.2161L58.3237 54.3922H59.0771L59.1907 53.7839C59.3522 52.8321 60.0279 52.2539 60.853 52.2539C61.2178 52.2539 61.4749 52.3201 61.75 52.4768L61.5646 53.5369Z" fill="white"/>
</g>
<mask id="mask13_1100_4351" style="mask-type:luminance" maskUnits="userSpaceOnUse" x="0" y="0" width="134" height="61">
<path d="M134 0H0V61H134V0Z" fill="white"/>
</mask>
<g mask="url(#mask13_1100_4351)">
<path d="M66.0254 59.0183H64.4588L64.6023 57.928C64.2017 58.7713 63.3945 59.1147 62.8563 59.1147C62.1567 59.1147 61.8817 58.7653 61.8817 58.1087C61.8817 57.9039 61.9115 57.663 61.9474 57.4522L62.3959 54.9645L61.6963 54.7235L61.7561 54.3862H63.3287L62.7905 57.3558C62.7606 57.5184 62.7427 57.7112 62.7427 57.8377C62.7427 58.2653 62.9281 58.3858 63.2689 58.3858C63.7592 58.3858 64.6023 57.8859 64.8355 56.6149L65.2182 54.3802H66.0613L65.3497 58.434L66.0852 58.6749L66.0254 59.0183Z" fill="white"/>
</g>
<mask id="mask14_1100_4351" style="mask-type:luminance" maskUnits="userSpaceOnUse" x="0" y="0" width="134" height="61">
<path d="M134 0H0V61H134V0Z" fill="white"/>
</mask>
<g mask="url(#mask14_1100_4351)">
<path d="M71.6221 59.0183H70.0495L70.5936 56.0487C70.6116 55.8921 70.6295 55.6933 70.6295 55.5728C70.6295 55.1391 70.4501 55.0126 70.1033 55.0126C69.613 55.0126 68.7699 55.5126 68.5487 56.7896L68.154 59.0122H67.3229L68.0344 54.9584L67.293 54.7175L67.3587 54.3802H68.9134L68.7699 55.4825C69.1705 54.6332 69.9778 54.2838 70.5279 54.2838C71.2275 54.2838 71.4965 54.6332 71.4965 55.2897C71.4965 55.4945 71.4666 55.7355 71.4308 55.9463L70.9883 58.434L71.6819 58.6749L71.6221 59.0183Z" fill="white"/>
</g>
<mask id="mask15_1100_4351" style="mask-type:luminance" maskUnits="userSpaceOnUse" x="0" y="0" width="134" height="61">
<path d="M134 0H0V61H134V0Z" fill="white"/>
</mask>
<g mask="url(#mask15_1100_4351)">
<path d="M73.6616 57.0305C73.6496 57.157 73.6436 57.2714 73.6436 57.3799C73.6436 58.0545 73.9307 58.3798 74.403 58.3798C74.9771 58.3798 75.5571 58.1689 76.0534 57.663L76.3344 58.0665C75.7365 58.7833 75.007 59.1207 74.2057 59.1207C73.3566 59.1207 72.8125 58.5725 72.8125 57.4281C72.8125 55.4945 73.8649 54.2958 75.1445 54.2958C76.0653 54.2958 76.5078 54.6633 76.5078 55.3198C76.5018 56.2475 75.7783 56.7474 73.6616 57.0305ZM75.0309 54.9042C74.3911 54.9042 73.9546 55.368 73.7513 56.5004C75.3538 56.2595 75.6826 55.9704 75.6826 55.4463C75.6826 55.097 75.4913 54.9042 75.0309 54.9042Z" fill="white"/>
</g>
<mask id="mask16_1100_4351" style="mask-type:luminance" maskUnits="userSpaceOnUse" x="0" y="0" width="134" height="61">
<path d="M134 0H0V61H134V0Z" fill="white"/>
</mask>
<g mask="url(#mask16_1100_4351)">
<path d="M80.6752 55.3198C80.5496 55.2415 80.3881 55.2054 80.131 55.2054C79.7304 55.2054 79.1145 55.8499 78.9112 57.0305L78.5644 59.0243H77.7273L78.4388 54.9705L77.6914 54.7295L77.7572 54.3922H79.3118L79.1683 55.5246C79.5989 54.6332 80.0473 54.3079 80.4539 54.3079C80.7409 54.3079 80.9024 54.3561 81.0578 54.4645L80.6752 55.3198Z" fill="white"/>
</g>
<mask id="mask17_1100_4351" style="mask-type:luminance" maskUnits="userSpaceOnUse" x="0" y="0" width="134" height="61">
<path d="M134 0H0V61H134V0Z" fill="white"/>
</mask>
<g mask="url(#mask17_1100_4351)">
<path d="M85.5545 59.0183H84.0298L84.1434 57.9341C83.8384 58.5906 83.1747 59.1267 82.5708 59.1267C81.8114 59.1267 81.4287 58.6027 81.4287 57.657C81.4287 55.6451 82.3974 54.3019 83.7129 54.3019C84.1733 54.3019 84.538 54.4766 84.837 54.7958L85.1838 54.3802H85.5964L84.8968 58.44L85.6143 58.681L85.5545 59.0183ZM83.7906 54.9404C82.9774 54.9404 82.3017 55.9162 82.3017 57.5124C82.3017 58.1509 82.505 58.3918 82.9415 58.3918C83.5634 58.3918 84.1793 57.6871 84.3646 56.633L84.6038 55.2897C84.3826 55.0669 84.1015 54.9404 83.7906 54.9404Z" fill="white"/>
</g>
<mask id="mask18_1100_4351" style="mask-type:luminance" maskUnits="userSpaceOnUse" x="0" y="0" width="134" height="61">
<path d="M134 0H0V61H134V0Z" fill="white"/>
</mask>
<g mask="url(#mask18_1100_4351)">
<path d="M89.7396 55.3198C89.614 55.2415 89.4526 55.2054 89.1955 55.2054C88.7949 55.2054 88.179 55.8499 87.9757 57.0305L87.6289 59.0243H86.7917L87.5033 54.9705L86.7559 54.7295L86.8216 54.3922H88.3763L88.2328 55.5246C88.6633 54.6332 89.1177 54.3079 89.5184 54.3079C89.8054 54.3079 89.9668 54.3561 90.1223 54.4645L89.7396 55.3198Z" fill="white"/>
</g>
<mask id="mask19_1100_4351" style="mask-type:luminance" maskUnits="userSpaceOnUse" x="0" y="0" width="134" height="61">
<path d="M134 0H0V61H134V0Z" fill="white"/>
</mask>
<g mask="url(#mask19_1100_4351)">
<path d="M92.2755 59.0183H90.649L91.3606 54.9645L90.6191 54.7235L90.6849 54.3862H92.2994L91.5878 58.44L92.3293 58.681L92.2755 59.0183ZM92.0542 53.3562C91.7552 53.3562 91.5639 53.1695 91.5639 52.8743C91.5639 52.4948 91.8987 52.1876 92.2456 52.1876C92.5146 52.1876 92.706 52.3683 92.706 52.6635C92.706 53.0731 92.3771 53.3562 92.0542 53.3562Z" fill="white"/>
</g>
<mask id="mask20_1100_4351" style="mask-type:luminance" maskUnits="userSpaceOnUse" x="0" y="0" width="134" height="61">
<path d="M134 0H0V61H134V0Z" fill="white"/>
</mask>
<g mask="url(#mask20_1100_4351)">
<path d="M97.6512 59.0183H96.1265L96.2401 57.9341C95.9351 58.5906 95.2714 59.1267 94.6675 59.1267C93.9081 59.1267 93.5254 58.6027 93.5254 57.657C93.5254 55.6451 94.4941 54.3019 95.8096 54.3019C96.27 54.3019 96.6347 54.4766 96.9277 54.7958L97.2745 54.3802H97.6871L96.9815 58.44L97.6991 58.681L97.6512 59.0183ZM95.8873 54.9404C95.0741 54.9404 94.3984 55.9162 94.3984 57.5124C94.3984 58.1509 94.6017 58.3918 95.0442 58.3918C95.666 58.3918 96.2819 57.6871 96.4673 56.633L96.7065 55.2897C96.4852 55.0669 96.2042 54.9404 95.8873 54.9404Z" fill="white"/>
</g>
<mask id="mask21_1100_4351" style="mask-type:luminance" maskUnits="userSpaceOnUse" x="0" y="0" width="134" height="61">
<path d="M134 0H0V61H134V0Z" fill="white"/>
</mask>
<g mask="url(#mask21_1100_4351)">
<path d="M101.909 55.8078H101.508L101.442 54.9584C101.239 54.8801 101.047 54.8621 100.784 54.8621C100.115 54.8621 99.8157 55.0849 99.8157 55.4162C99.8157 55.7234 99.9413 55.8981 100.438 56.139L100.79 56.3137C101.436 56.633 101.741 57.0365 101.741 57.5726C101.741 58.5605 100.94 59.1207 99.7798 59.1207C99.2118 59.1207 98.8231 59.0544 98.4404 58.9099L98.6198 57.6269H99.0324L99.1281 58.4701C99.3493 58.5304 99.5586 58.5484 99.8456 58.5484C100.527 58.5484 100.928 58.2774 100.928 57.8317C100.928 57.5004 100.802 57.3076 100.336 57.0787L99.9831 56.904C99.2835 56.5547 99.0324 56.2294 99.0324 55.6632C99.0324 54.838 99.6961 54.3019 100.874 54.3019C101.382 54.3019 101.717 54.3802 102.112 54.5609L101.909 55.8078Z" fill="white"/>
</g>
<mask id="mask22_1100_4351" style="mask-type:luminance" maskUnits="userSpaceOnUse" x="0" y="0" width="134" height="61">
<path d="M134 0H0V61H134V0Z" fill="white"/>
</mask>
<g mask="url(#mask22_1100_4351)">
<path d="M29.6345 38.1589L29.6046 38.1649C28.899 38.2071 28.1994 38.2251 27.3981 38.2251C26.1006 38.2251 24.9944 38.201 24.4263 38.1649H24.4024L24.3785 38.177C24.2649 38.2191 24.1991 38.3637 24.1991 38.5263C24.1931 38.5926 24.2051 38.8215 24.3725 38.9058L25.3292 39.0202C26.555 39.1588 26.5849 39.213 26.5849 40.9417V41.785C26.5849 42.4235 26.4893 42.791 26.3936 42.9174C26.1604 43.2789 25.3352 43.4957 24.1991 43.4957C20.2407 43.4957 18.0522 41.1827 18.0522 36.9783C18.0522 34.2436 19.5471 31.0451 23.7566 31.0451C26.1245 31.0451 27.3981 31.9366 27.9183 33.9424L27.9243 33.9605L27.9482 33.9906C28.02 34.0629 28.1456 34.1051 28.2891 34.1051C28.4386 34.1051 28.6419 34.0509 28.7017 33.8882L28.7136 33.8641L28.7076 33.834C28.4984 32.4486 28.3967 31.4367 28.3967 30.8042V30.6717L28.2711 30.6958C28.2412 30.7018 28.2054 30.7018 28.1695 30.7018C27.9243 30.7018 27.4699 30.6054 27.135 30.5331L27.0154 30.509C26.6926 30.4307 25.5744 30.1898 24.3366 30.1898C21.4306 30.1898 19.2481 31.003 17.6456 32.6835C16.3481 34.0749 15.7441 35.5929 15.7441 37.4541C15.7441 39.2491 16.3421 40.6586 17.6934 42.0139C19.2122 43.562 21.4366 44.3751 24.1393 44.3751C25.3831 44.3751 26.9377 44.08 27.8944 43.827C28.2233 43.7427 28.6239 43.6463 28.887 43.6463H28.9229L28.9468 43.6222C29.0126 43.574 29.0544 43.4957 29.0604 43.4174C29.0604 43.3331 29.0365 43.2487 28.9767 43.1945L28.9468 43.1704C28.6478 43.056 28.5223 42.6404 28.5223 41.7911V40.6165C28.5223 39.5081 28.5522 39.0564 29.3116 38.966L29.6763 38.9178H29.6823L29.7122 38.8937C29.8079 38.8094 29.8617 38.6588 29.8557 38.4962C29.8378 38.3516 29.778 38.2372 29.6823 38.183L29.6345 38.1589Z" fill="white"/>
</g>
<mask id="mask23_1100_4351" style="mask-type:luminance" maskUnits="userSpaceOnUse" x="0" y="0" width="134" height="61">
<path d="M134 0H0V61H134V0Z" fill="white"/>
</mask>
<g mask="url(#mask23_1100_4351)">
<path d="M40.4448 43.3632L40.0801 43.2849C39.3924 43.1584 39.231 42.9415 38.9739 42.2428L37.1023 37.2252C36.7973 36.4121 36.5522 35.6772 36.3907 35.1953L36.3728 35.1291C36.2771 34.852 36.2293 34.7074 36.2054 34.6472C36.1456 34.4665 35.9482 34.3882 35.727 34.4725L35.6792 34.4906L35.6612 34.5327C35.5656 34.7676 35.1889 35.1351 34.848 35.2736L34.7823 35.2977L34.7703 35.364C34.7284 35.7736 34.567 36.2916 34.2381 37.0987L32.235 41.9296C31.8164 42.9355 31.5952 43.1162 31.0271 43.2487L30.5368 43.3632L30.5069 43.3752C30.3993 43.4535 30.3335 43.6101 30.3574 43.7728C30.3694 43.9234 30.4531 44.0499 30.5667 44.092L30.5966 44.1101L30.6265 44.1041C30.7043 44.1041 30.788 44.092 30.8836 44.086H30.9135C31.2304 44.0619 31.637 44.0438 32.0795 44.0438C32.6655 44.0438 33.1977 44.0619 33.7239 44.1041L33.7418 44.0981C33.8734 44.0679 33.975 43.9595 34.0049 43.8029C34.0288 43.6583 33.987 43.4535 33.8435 43.3632L33.2455 43.2427C33.108 43.2126 33.0123 43.1825 32.9884 43.1403C32.9406 43.056 33.0183 42.791 33.096 42.556L33.5744 41.2068C33.7179 40.7851 33.7299 40.7851 34.1783 40.7851H36.1575C36.606 40.7851 36.6179 40.7851 36.7615 41.2068L37.2578 42.5741C37.3534 42.8211 37.4551 43.0861 37.4072 43.1704C37.3714 43.2307 37.198 43.2608 37.0724 43.2849L36.6478 43.3511L36.6239 43.3572C36.4984 43.4174 36.4146 43.562 36.4326 43.7366C36.4505 43.9173 36.5462 44.0559 36.6837 44.0981L36.7076 44.1041L36.7196 44.0981C37.2458 44.0559 37.8557 44.0378 38.5912 44.0378C39.2489 44.0378 39.7273 44.0499 40.3192 44.0981L40.3372 44.092C40.4747 44.0619 40.5823 43.9414 40.6063 43.7728C40.6421 43.6342 40.5883 43.4475 40.4448 43.3632ZM36.1994 39.8394C36.1695 39.8876 35.9363 39.8876 35.8227 39.8876H34.3816C34.3159 39.8876 34.1125 39.8876 34.0886 39.8575C34.0707 39.8214 34.1185 39.6828 34.2142 39.4298L34.9616 37.5626C35.0872 37.2975 35.159 37.1168 35.2068 37.0024C35.2726 37.1349 35.3503 37.3276 35.446 37.5987L36.0918 39.3877C36.1336 39.4901 36.2412 39.7852 36.1994 39.8394Z" fill="white"/>
</g>
<mask id="mask24_1100_4351" style="mask-type:luminance" maskUnits="userSpaceOnUse" x="0" y="0" width="134" height="61">
<path d="M134 0H0V61H134V0Z" fill="white"/>
</mask>
<g mask="url(#mask24_1100_4351)">
<path d="M51.166 43.5258L51.1241 43.5198C50.7295 43.4957 50.3826 43.3572 50.0837 43.1042C49.5096 42.6223 48.5768 41.6585 47.4587 39.7672C47.4527 39.7611 47.3989 39.6648 47.4228 39.6105C48.6905 39.1467 49.3303 38.3577 49.3303 37.2674C49.3303 34.9303 47.1059 34.6351 45.1745 34.6351C44.0145 34.6351 42.8306 34.6713 41.6765 34.7616C41.5031 34.8158 41.4493 35.0086 41.4613 35.1772C41.4732 35.364 41.5689 35.4965 41.6945 35.5146L42.2805 35.5989C42.6332 35.6471 42.6811 35.8459 42.6811 37.2734V41.7248C42.6811 43.1042 42.6333 43.1162 41.7901 43.2969L41.4553 43.3692C41.3297 43.4294 41.246 43.574 41.258 43.7487C41.2699 43.9234 41.3716 44.0679 41.5151 44.1101L41.533 44.1161L41.551 44.1101C42.2924 44.0679 42.9442 44.0499 43.59 44.0499C44.2178 44.0499 44.8995 44.0679 45.7964 44.1101L45.8203 44.1161L45.8382 44.1101C45.9519 44.0679 46.0296 43.9535 46.0475 43.7969C46.0655 43.6644 46.0356 43.4776 45.904 43.3813L45.3778 43.2969C44.5766 43.1825 44.4929 43.1704 44.4929 41.7308V40.243C44.4929 40.0262 44.4929 40.0201 44.9593 40.0201C45.2104 40.0201 45.5512 40.0683 45.7007 40.3032C45.7904 40.4478 45.8921 40.6044 45.9997 40.761L46.0356 40.8273C46.4183 41.4116 46.8368 42.0681 47.2315 42.5801C48.1583 43.7728 48.9476 44.1944 50.2391 44.1944C50.6218 44.1944 50.9328 44.1523 51.154 44.08L51.1779 44.0679C51.2437 44.0197 51.2796 43.9354 51.2855 43.8451C51.2975 43.7306 51.2616 43.6282 51.1899 43.562L51.166 43.5258ZM47.375 37.3337C47.375 38.6528 46.8009 39.213 45.4257 39.213C44.4988 39.213 44.4988 39.213 44.4988 38.8034V35.9483C44.4988 35.5206 44.5287 35.4724 45.3001 35.4724C46.7411 35.4724 47.375 36.406 47.375 37.3337Z" fill="white"/>
</g>
<mask id="mask25_1100_4351" style="mask-type:luminance" maskUnits="userSpaceOnUse" x="0" y="0" width="134" height="61">
<path d="M134 0H0V61H134V0Z" fill="white"/>
</mask>
<g mask="url(#mask25_1100_4351)">
<path d="M60.195 41.2369C60.0336 41.2369 59.8961 41.3152 59.8243 41.4477C59.5612 42.0621 58.7659 43.4957 56.9243 43.4957C55.1185 43.4957 53.2887 42.0199 53.2887 39.2009C53.2887 36.2795 55.1484 35.2375 56.7449 35.2375C58.2637 35.2375 59.1546 35.894 59.5313 37.3035L59.5493 37.3276L59.5552 37.3397C59.633 37.43 59.7645 37.4842 59.8961 37.4842C60.0635 37.4842 60.219 37.3999 60.2847 37.2734L60.2967 37.2433L60.2907 37.2072C60.1651 36.3518 60.1053 35.3278 60.1053 34.9122V34.7978H59.9977C59.9678 34.7978 59.8363 34.7737 59.7047 34.7435L59.6688 34.7375C59.1427 34.6171 58.1501 34.4002 57.1395 34.4002C55.5011 34.4002 54.0362 34.8399 53.0017 35.6411C52.1825 36.2856 51.2139 37.4782 51.2139 39.5142C51.2139 41.0562 51.9493 42.4536 53.2409 43.3451C54.2036 44.0077 55.4294 44.333 56.9781 44.333C58.0424 44.333 58.754 44.1462 59.2862 44.0077C59.4835 43.9595 59.6509 43.9173 59.8123 43.8872L59.8542 43.8812L59.8841 43.839C60.1532 43.4415 60.4821 42.4597 60.5957 41.514V41.4838L60.5777 41.4537C60.506 41.3212 60.3565 41.2369 60.195 41.2369Z" fill="white"/>
</g>
<mask id="mask26_1100_4351" style="mask-type:luminance" maskUnits="userSpaceOnUse" x="0" y="0" width="134" height="61">
<path d="M134 0H0V61H134V0Z" fill="white"/>
</mask>
<g mask="url(#mask26_1100_4351)">
<path d="M66.0556 35.4483L66.4622 35.3821L66.4981 35.364C66.6416 35.2676 66.6595 35.0809 66.6416 34.9544C66.6236 34.7978 66.5459 34.6833 66.4323 34.6412L66.4084 34.6291L66.3905 34.6351C65.4816 34.6773 64.8657 34.6954 64.2677 34.6954C63.6638 34.6954 63.0539 34.6773 62.145 34.6351L62.1271 34.6291L62.1032 34.6412C61.9896 34.6773 61.9178 34.7978 61.8939 34.9544C61.8759 35.0809 61.8939 35.2676 62.0314 35.364L62.4739 35.4483C63.2931 35.5808 63.3589 35.5929 63.3589 37.0084V41.7188C63.3589 43.1403 63.2931 43.1584 62.4739 43.2849L62.0733 43.3511L62.0314 43.3692C61.8939 43.4596 61.87 43.6523 61.8939 43.7848C61.9118 43.9354 61.9896 44.0559 62.1032 44.0981L62.1271 44.1041L62.145 44.0981C62.9941 44.0559 63.6339 44.0378 64.2677 44.0378C64.9135 44.0378 65.5832 44.0559 66.3905 44.0981L66.4084 44.1041L66.4323 44.0981C66.5459 44.0559 66.6236 43.9354 66.6416 43.7848C66.6595 43.6523 66.6356 43.4596 66.4981 43.3692L66.0676 43.2849C65.2424 43.1584 65.1766 43.1403 65.1766 41.7188V37.0084C65.1766 35.5929 65.2364 35.5869 66.0556 35.4483Z" fill="white"/>
</g>
<mask id="mask27_1100_4351" style="mask-type:luminance" maskUnits="userSpaceOnUse" x="0" y="0" width="134" height="61">
<path d="M134 0H0V61H134V0Z" fill="white"/>
</mask>
<g mask="url(#mask27_1100_4351)">
<path d="M77.2306 43.3632L76.8599 43.2849C76.1722 43.1584 75.9988 42.9415 75.7537 42.2428L73.8701 37.2252C73.5652 36.4121 73.326 35.6772 73.1646 35.1953L73.1466 35.1291C73.0569 34.852 73.0031 34.7074 72.9792 34.6472C72.9194 34.4665 72.7221 34.3882 72.5068 34.4725L72.459 34.4906L72.4351 34.5327C72.3454 34.7676 71.9687 35.1351 71.6278 35.2736L71.5621 35.2977L71.5561 35.364C71.5142 35.7736 71.3588 36.2976 71.0239 37.0987L69.0268 41.9296C68.6082 42.9355 68.3929 43.1162 67.8129 43.2487L67.3286 43.3572L67.2927 43.3752C67.1851 43.4535 67.1253 43.6101 67.1373 43.7728C67.1612 43.9173 67.2329 44.0499 67.3525 44.092L67.3824 44.1101L67.4063 44.1041C67.49 44.1041 67.5797 44.092 67.6694 44.086H67.6933C68.0102 44.0619 68.4169 44.0438 68.8653 44.0438C69.4453 44.0438 69.9835 44.0619 70.5097 44.1041L70.5336 44.0981C70.6651 44.0679 70.7608 43.9595 70.7847 43.8029C70.8146 43.6583 70.7787 43.4535 70.6293 43.3632L70.0313 43.2427C69.8938 43.2126 69.7981 43.1825 69.7742 43.1403C69.7264 43.056 69.8041 42.791 69.8878 42.556L70.3602 41.2068C70.5097 40.7851 70.5216 40.7851 70.9701 40.7851H72.9553C73.3978 40.7851 73.4037 40.7851 73.5472 41.2068L74.0495 42.5741C74.1452 42.8211 74.2468 43.0861 74.205 43.1704C74.1751 43.2186 74.0734 43.2487 73.8701 43.2849L73.4516 43.3511L73.4277 43.3572C73.2961 43.4174 73.2184 43.562 73.2363 43.7366C73.2483 43.9173 73.3439 44.0559 73.4815 44.0981L73.5054 44.1041L73.5233 44.0981C74.0495 44.0559 74.6534 44.0378 75.3889 44.0378C76.0467 44.0378 76.525 44.0499 77.123 44.0981L77.1409 44.092C77.2844 44.0619 77.3801 43.9414 77.41 43.7728C77.416 43.6403 77.3741 43.4475 77.2306 43.3632ZM72.9852 39.8394C72.9553 39.8876 72.7161 39.8876 72.6085 39.8876H71.1674C71.1016 39.8876 70.8983 39.8876 70.8744 39.8575C70.8565 39.8214 70.8983 39.6828 71 39.4298L71.7534 37.5626C71.879 37.2794 71.9507 37.1048 71.9986 37.0024C72.0643 37.1349 72.1421 37.3276 72.2377 37.5987L72.8775 39.3877C72.9792 39.6527 73.0151 39.8033 72.9852 39.8394Z" fill="white"/>
</g>
<mask id="mask28_1100_4351" style="mask-type:luminance" maskUnits="userSpaceOnUse" x="0" y="0" width="134" height="61">
<path d="M134 0H0V61H134V0Z" fill="white"/>
</mask>
<g mask="url(#mask28_1100_4351)">
<path d="M93.2739 40.7671C93.2021 40.7671 93.1065 40.7791 93.0287 40.8393L92.9988 40.8875C92.6281 41.8573 92.1019 42.6464 91.6714 42.9054C91.3604 43.0861 90.9239 43.1704 89.1839 43.1704C87.6472 43.1704 87.2227 42.9536 86.9954 42.7187C86.6486 42.3512 86.5888 41.8212 86.5888 40.5321V33.7918C86.5888 31.5993 86.6247 31.3523 87.7548 31.262L88.2631 31.2198L88.3049 31.2017H88.3169C88.4484 31.1114 88.4484 30.9247 88.4425 30.8464C88.4365 30.7138 88.3827 30.5392 88.2691 30.4729L88.2392 30.4669H88.2152C87.2227 30.509 86.4872 30.5271 85.656 30.5271C84.8548 30.5271 84.1671 30.509 82.9473 30.4669H82.9174L82.8935 30.4729C82.7679 30.5331 82.7321 30.7018 82.7201 30.8464C82.7081 30.9427 82.7201 31.1174 82.8397 31.2017L82.8576 31.2078L83.4137 31.262C84.6276 31.3584 84.6634 31.5692 84.6634 33.7918V40.7791C84.6634 42.9717 84.6276 43.1765 83.5094 43.2909L82.8397 43.3572L82.8158 43.3873C82.7141 43.4957 82.6962 43.6764 82.7141 43.8089C82.738 43.9535 82.7978 44.0499 82.8875 44.0981L82.9114 44.1161L82.9413 44.1101C84.1313 44.0679 84.783 44.0499 85.65 44.0499H87.5695C89.8596 44.0499 91.7551 44.0679 92.7477 44.1101H92.8194L92.8493 44.0499C93.1603 43.4535 93.7403 41.2911 93.7403 41.0562C93.7343 40.8514 93.4652 40.7671 93.2739 40.7671Z" fill="white"/>
</g>
<mask id="mask29_1100_4351" style="mask-type:luminance" maskUnits="userSpaceOnUse" x="0" y="0" width="134" height="61">
<path d="M134 0H0V61H134V0Z" fill="white"/>
</mask>
<g mask="url(#mask29_1100_4351)">
<path d="M99.5585 33.8159C99.5705 33.8159 99.5944 33.8099 99.5944 33.8099L99.6363 33.8039L101.705 31.8041C101.974 31.5089 102.154 31.274 102.154 31.0933C102.154 30.9066 102.034 30.6415 101.693 30.4428C101.418 30.2139 101.203 30.1597 101.071 30.1597C101.041 30.1597 101.024 30.1657 101.024 30.1657C100.85 30.1657 100.671 30.3343 100.479 30.6837L99.0383 33.3702L99.0264 33.3883L99.0383 33.4304C99.0921 33.6533 99.3552 33.8159 99.5585 33.8159Z" fill="white"/>
</g>
<mask id="mask30_1100_4351" style="mask-type:luminance" maskUnits="userSpaceOnUse" x="0" y="0" width="134" height="61">
<path d="M134 0H0V61H134V0Z" fill="white"/>
</mask>
<g mask="url(#mask30_1100_4351)">
<path d="M99.8692 34.4062C96.8257 34.4062 94.6133 36.5265 94.6133 39.4539C94.6133 42.3272 96.7778 44.333 99.8692 44.333C102.871 44.333 105.047 42.2248 105.047 39.3214C105.053 36.8759 103.451 34.4062 99.8692 34.4062ZM99.9828 43.4957C97.7106 43.4957 96.7001 41.2971 96.7001 39.1166C96.7001 36.2615 98.2667 35.2375 99.7317 35.2375C101.98 35.2375 102.973 37.4481 102.973 39.6407C102.967 43.2186 100.682 43.4957 99.9828 43.4957Z" fill="white"/>
</g>
<mask id="mask31_1100_4351" style="mask-type:luminance" maskUnits="userSpaceOnUse" x="0" y="0" width="134" height="61">
<path d="M134 0H0V61H134V0Z" fill="white"/>
</mask>
<g mask="url(#mask31_1100_4351)">
<path d="M112.432 34.9965C111.744 34.7496 110.937 34.6351 109.891 34.6351C108.808 34.6351 107.75 34.6713 106.548 34.7616H106.524C106.363 34.8158 106.285 34.9965 106.285 35.1532C106.285 35.3278 106.375 35.4604 106.524 35.5085L107.146 35.6109C107.505 35.6772 107.547 35.8459 107.547 37.2674V41.7188C107.547 43.0982 107.499 43.1102 106.656 43.2909L106.333 43.3572L106.303 43.3752C106.165 43.4656 106.142 43.6583 106.16 43.7909C106.189 43.9475 106.261 44.0619 106.369 44.1041L106.393 44.1101L106.423 44.1041C107.158 44.0619 107.804 44.0438 108.456 44.0438C109.077 44.0438 109.765 44.0619 110.656 44.1041L110.68 44.1101L110.71 44.1041C110.812 44.0619 110.901 43.9414 110.913 43.7909C110.931 43.6583 110.907 43.4716 110.776 43.3752L110.243 43.2909C109.454 43.1765 109.37 43.1644 109.37 41.7248V36.0748C109.37 35.5085 109.37 35.4724 110.106 35.4724C111.469 35.4724 112.265 36.2133 112.265 37.5023C112.265 38.7793 111.667 39.5202 110.417 39.7852L110.393 39.7912L110.363 39.8153C110.232 39.9479 110.243 40.2069 110.387 40.3575L110.411 40.3876H110.453C110.513 40.3936 110.578 40.3996 110.662 40.3996C111.158 40.3996 111.846 40.2731 112.402 40.0744C113.084 39.8274 114.208 39.1889 114.208 37.5686C114.202 35.7796 112.851 35.1532 112.432 34.9965Z" fill="white"/>
</g>
<mask id="mask32_1100_4351" style="mask-type:luminance" maskUnits="userSpaceOnUse" x="0" y="0" width="134" height="61">
<path d="M134 0H0V61H134V0Z" fill="white"/>
</mask>
<g mask="url(#mask32_1100_4351)">
<path d="M123.249 41.3694C123.123 41.3694 123.004 41.4116 122.92 41.5019L122.902 41.532C122.328 43.1222 121.616 43.2006 120.289 43.2006C119.093 43.2006 118.776 43.1042 118.633 42.9476C118.537 42.8331 118.429 42.4898 118.429 41.5079V39.9961C118.429 39.6286 118.429 39.6286 118.71 39.6286H119.691C120.773 39.6286 120.809 39.7792 120.959 40.3394L121.066 40.743L121.084 40.7731C121.144 40.8695 121.27 40.9176 121.407 40.9176C121.569 40.9176 121.718 40.8393 121.796 40.7249L121.814 40.6948L121.802 40.6586C121.766 40.0503 121.766 39.6768 121.766 39.1528C121.766 38.6709 121.766 38.2974 121.802 37.6891L121.814 37.6469L121.796 37.6228C121.718 37.5023 121.569 37.424 121.407 37.424C121.27 37.424 121.15 37.4782 121.084 37.5686L120.959 38.0023C120.809 38.5625 120.773 38.713 119.691 38.713H118.71C118.429 38.713 118.429 38.713 118.429 38.4058V36.0748C118.429 35.5206 118.429 35.5206 119.069 35.5206H119.984C120.468 35.5206 121.365 35.5206 121.664 35.9724C121.76 36.1169 121.891 36.3639 122.029 36.9542L122.047 36.9843L122.053 36.9963C122.131 37.0807 122.25 37.1349 122.394 37.1349C122.573 37.1349 122.723 37.0506 122.788 36.9301L122.794 36.9V36.8699C122.681 35.9362 122.585 34.9725 122.567 34.7315L122.561 34.605L122.436 34.6351C122.262 34.6713 121.521 34.6954 120.522 34.6954H117.556C116.869 34.6954 116.211 34.6713 115.625 34.6351L115.589 34.6291L115.571 34.6412C115.452 34.7014 115.374 34.852 115.368 35.0206C115.356 35.1773 115.416 35.3037 115.523 35.364L115.84 35.4423C116.57 35.5929 116.624 35.6049 116.624 37.0024V41.7128C116.624 43.1765 116.522 43.1885 115.745 43.2789L115.171 43.3451L115.135 43.3572L115.129 43.3632C114.997 43.4535 114.973 43.6403 114.985 43.7788C115.003 43.9294 115.081 44.0499 115.194 44.092L115.218 44.0981L115.242 44.092C116.205 44.0559 116.863 44.0318 117.55 44.0318H119.386C120.474 44.0318 121.575 44.0499 122.926 44.092H122.998L123.028 44.0318C123.267 43.6041 123.566 42.5139 123.667 41.6585V41.6344V41.6104C123.59 41.4477 123.41 41.3694 123.249 41.3694Z" fill="white"/>
</g>
<mask id="mask33_1100_4351" style="mask-type:luminance" maskUnits="userSpaceOnUse" x="0" y="0" width="134" height="61">
<path d="M134 0H0V61H134V0Z" fill="white"/>
</mask>
<g mask="url(#mask33_1100_4351)">
<path d="M133.988 41.5019C133.922 41.3634 133.719 41.261 133.54 41.261C133.432 41.261 133.336 41.2971 133.259 41.3754L133.241 41.3995L133.229 41.4116C133.019 42.1705 132.685 42.6584 132.248 42.8753C131.806 43.1102 131.148 43.2006 129.904 43.2006C128.792 43.2006 128.062 43.1584 127.805 43.1403C127.488 43.1162 127.452 43.0741 127.452 43.0741H127.446C127.458 43.0259 127.614 42.7488 128.565 41.5079C128.678 41.3634 128.768 41.2489 128.804 41.1947L131.202 37.8999C132.164 36.5807 133.193 35.4363 133.504 35.1351L133.528 35.111C133.569 35.0327 133.569 34.9303 133.534 34.8399C133.492 34.7436 133.414 34.6653 133.318 34.6291L133.294 34.6231L133.265 34.6291C132.942 34.6653 132.511 34.6893 131.758 34.6893H127.524C126.693 34.6893 126.346 34.6592 126.346 34.3821V34.352L126.334 34.3219C126.28 34.2376 126.173 34.1834 126.053 34.1834C125.928 34.1834 125.814 34.2496 125.766 34.3882C125.641 35.2074 125.437 35.9844 125.168 36.9723L125.156 37.0144L125.174 37.0566C125.24 37.2072 125.413 37.3096 125.599 37.3096C125.718 37.3096 125.82 37.2734 125.904 37.1891L125.928 37.153C126.418 35.7435 126.938 35.5266 128.487 35.5266H130.388C130.771 35.5266 130.813 35.5748 130.819 35.5748C130.819 35.5748 130.831 35.623 130.711 35.7856C130.628 35.9061 130.388 36.2314 130.137 36.5747L130.06 36.6891C129.796 37.0445 129.503 37.4541 129.402 37.5867L126.275 41.8573C125.862 42.4356 125.144 43.309 124.839 43.574C124.78 43.6463 124.762 43.7427 124.768 43.839C124.798 43.9414 124.851 44.0258 124.935 44.08L124.971 44.0981L125.013 44.092C125.294 44.0499 125.814 44.0318 126.579 44.0318H130.227C131.674 44.0318 132.696 44.0499 133.27 44.092L133.336 44.0981L133.372 44.0438C133.605 43.6824 133.856 42.6825 134.012 41.5622V41.52L133.988 41.5019Z" fill="white"/>
</g>
<mask id="mask34_1100_4351" style="mask-type:luminance" maskUnits="userSpaceOnUse" x="0" y="0" width="134" height="61">
<path d="M134 0H0V61H134V0Z" fill="white"/>
</mask>
<g mask="url(#mask34_1100_4351)">
<path d="M64.0224 33.8159H64.0284C64.0403 33.8159 64.0523 33.8099 64.0702 33.8099L64.1121 33.8039L66.175 31.8041C66.4441 31.5089 66.6235 31.274 66.6235 31.0933C66.6235 30.9066 66.5039 30.6416 66.169 30.4428C65.888 30.2139 65.6727 30.1597 65.5472 30.1597C65.5232 30.1597 65.4934 30.1657 65.4874 30.1657C65.314 30.1657 65.1346 30.3344 64.9492 30.6837L63.5022 33.3702L63.4902 33.3883L63.5082 33.4365C63.562 33.6533 63.8251 33.8159 64.0224 33.8159Z" fill="white"/>
</g>
<mask id="mask35_1100_4351" style="mask-type:luminance" maskUnits="userSpaceOnUse" x="0" y="0" width="134" height="61">
<path d="M134 0H0V61H134V0Z" fill="white"/>
</mask>
<g mask="url(#mask35_1100_4351)">
<path d="M6.88237 30.4368L6.85248 30.4187H6.8166C5.98545 30.4609 5.30977 30.4789 4.56234 30.4789C3.76109 30.4789 3.12726 30.4609 1.90745 30.4187H1.87158L1.84168 30.4368C1.71611 30.497 1.66229 30.6717 1.65631 30.8162C1.64436 30.9849 1.69219 31.1174 1.78786 31.1776L1.81776 31.1957L2.34395 31.2379C3.36644 31.3282 3.58768 31.4186 3.58768 33.6533V41.2068C3.58768 43.0138 3.45614 45.3991 3.08541 46.1581C2.93592 46.4532 2.72066 46.5978 2.41571 46.5978C2.12869 46.5978 1.84168 46.5255 1.62044 46.4653C1.34538 46.381 1.09424 46.3388 0.849085 46.3388C0.322892 46.3388 0 47.0255 0 47.3989C0 47.6579 0.173405 47.9591 0.992593 47.9591C2.73262 47.9591 4.2813 46.8207 5.02874 44.9956C5.44132 43.9896 5.49514 42.4476 5.49514 41.0682V33.6533C5.49514 31.5089 5.55493 31.3764 6.5834 31.2379L6.91227 31.1897L6.94217 31.1716C7.03784 31.1114 7.08568 30.9789 7.07372 30.8102C7.06176 30.6717 7.00794 30.497 6.88237 30.4368Z" fill="white"/>
</g>
<mask id="mask36_1100_4351" style="mask-type:luminance" maskUnits="userSpaceOnUse" x="0" y="0" width="134" height="61">
<path d="M134 0H0V61H134V0Z" fill="white"/>
</mask>
<g mask="url(#mask36_1100_4351)">
<path d="M10.2185 41.6646C9.5069 41.6646 8.96875 42.2308 8.96875 42.9837C8.96875 43.7908 9.61453 44.2245 10.2185 44.2245C10.9539 44.2245 11.4682 43.7125 11.4682 42.9837C11.4622 42.2308 10.93 41.6646 10.2185 41.6646Z" fill="white"/>
</g>
</g>
<defs>
<clipPath id="clip0_1100_4351">
<rect width="134" height="61" fill="white"/>
</clipPath>
</defs>
</svg>
