<svg width="28" height="29" viewBox="0 0 28 29" fill="none" xmlns="http://www.w3.org/2000/svg">
<path d="M19.1705 2.88946L18.0835 2.58496L17.4944 4.83663L18.5825 5.14229C19.5329 5.40874 20.3993 5.92857 21.0952 6.64996C21.7911 7.37134 22.2923 8.26907 22.5487 9.25363L22.8416 10.3795L25.0168 9.77163L24.7239 8.64579C24.3649 7.26724 23.6632 6.01027 22.6887 5.00024C21.7143 3.99021 20.5013 3.26242 19.1705 2.88946ZM18.141 6.83046L17.054 6.52596L16.4648 8.77763L17.553 9.08329C17.838 9.16326 18.0978 9.3192 18.3065 9.53557C18.5152 9.75194 18.6656 10.0212 18.7425 10.3165L19.0354 11.4423L21.2105 10.8356L20.9176 9.70863C20.7381 9.01935 20.3873 8.39087 19.9001 7.88585C19.4129 7.38084 18.8063 7.01694 18.141 6.83046Z" fill="#132368"/>
<path d="M10.7938 2.83325H1.12894V3.99992C1.12154 8.4912 2.3721 12.8883 4.72903 16.6583C6.46604 19.4382 8.75179 21.8055 11.4358 23.6046C15.0758 26.0457 19.3213 27.3409 23.6577 27.3333H24.7841V17.3233L17.2482 15.5884L15.1531 17.7584C13.2359 16.4825 11.6062 14.7942 10.3747 12.8083L12.4688 10.6383L10.7938 2.83325Z" fill="#132368"/>
</svg>
