<svg width="20" height="20" viewBox="0 0 20 20" fill="none" xmlns="http://www.w3.org/2000/svg">
<path d="M13.6924 1.70773L12.916 1.49023L12.4952 3.09857L13.2724 3.3169C13.9513 3.50722 14.5701 3.87853 15.0672 4.3938C15.5642 4.90908 15.9222 5.55031 16.1054 6.25357L16.3146 7.05774L17.8683 6.62357L17.6591 5.8194C17.4026 4.83472 16.9014 3.93688 16.2054 3.21543C15.5094 2.49398 14.6429 1.97413 13.6924 1.70773ZM12.957 4.52273L12.1806 4.30523L11.7598 5.91357L12.537 6.1319C12.7406 6.18902 12.9262 6.3004 13.0753 6.45495C13.2243 6.6095 13.3317 6.80182 13.3867 7.01273L13.5959 7.8169L15.1495 7.38357L14.9403 6.57857C14.8121 6.08623 14.5615 5.63731 14.2135 5.27658C13.8655 4.91586 13.4323 4.65593 12.957 4.52273Z" fill="#132368"/>
<path d="M7.71011 1.66797H0.806664V2.5013C0.801383 5.70936 1.69463 8.85014 3.37816 11.543C4.61888 13.5286 6.25156 15.2196 8.16873 16.5046C10.7687 18.2483 13.8012 19.1734 16.8986 19.168H17.7032V12.018L12.3205 10.7788L10.8239 12.3288C9.45446 11.4174 8.29041 10.2115 7.4108 8.79297L8.90655 7.24297L7.71011 1.66797Z" fill="#132368"/>
</svg>
