<svg width="32" height="32" viewBox="0 0 32 32" fill="none" xmlns="http://www.w3.org/2000/svg">
<path d="M16.0013 2.66602C23.3653 2.66602 29.3347 8.63535 29.3347 15.9993C29.3347 23.3633 23.3653 29.3327 16.0013 29.3327C13.645 29.3367 11.3301 28.7131 9.29466 27.526L2.67332 29.3327L4.47599 22.7087C3.28793 20.6726 2.66386 18.3567 2.66799 15.9993C2.66799 8.63535 8.63732 2.66602 16.0013 2.66602ZM11.4573 9.73268L11.1907 9.74335C11.0182 9.75523 10.8498 9.80051 10.6947 9.87668C10.5501 9.9587 10.4181 10.0611 10.3027 10.1807C10.1427 10.3313 10.052 10.462 9.95466 10.5887C9.46148 11.2299 9.19595 12.0171 9.19999 12.826C9.20266 13.4793 9.37332 14.1153 9.63999 14.71C10.1853 15.9127 11.0827 17.186 12.2667 18.366C12.552 18.65 12.832 18.9354 13.1333 19.2007C14.6046 20.4959 16.3577 21.43 18.2533 21.9287L19.0107 22.0447C19.2573 22.058 19.504 22.0393 19.752 22.0273C20.1402 22.0069 20.5193 21.9018 20.8627 21.7194C21.0371 21.6291 21.2075 21.5313 21.3733 21.426C21.3733 21.426 21.4298 21.3878 21.54 21.306C21.72 21.1727 21.8307 21.078 21.98 20.922C22.092 20.8065 22.1853 20.6722 22.26 20.5194C22.364 20.302 22.468 19.8873 22.5107 19.542C22.5427 19.278 22.5333 19.134 22.5293 19.0447C22.524 18.902 22.4053 18.754 22.276 18.6913L21.5 18.3433C21.5 18.3433 20.34 17.838 19.6307 17.5153C19.5564 17.483 19.4769 17.4645 19.396 17.4607C19.3048 17.4511 19.2125 17.4613 19.1256 17.4905C19.0386 17.5198 18.959 17.5673 18.892 17.63C18.8853 17.6273 18.796 17.7034 17.832 18.8713C17.7767 18.9457 17.7004 19.0019 17.6131 19.0328C17.5257 19.0636 17.4311 19.0678 17.3413 19.0447C17.2544 19.0215 17.1693 18.9921 17.0867 18.9567C16.9213 18.8874 16.864 18.8607 16.7507 18.8127C15.9852 18.4792 15.2766 18.028 14.6507 17.4753C14.4827 17.3287 14.3267 17.1687 14.1667 17.014C13.6421 16.5116 13.185 15.9433 12.8067 15.3233L12.728 15.1967C12.6723 15.1111 12.6267 15.0194 12.592 14.9233C12.5413 14.7273 12.6733 14.57 12.6733 14.57C12.6733 14.57 12.9973 14.2153 13.148 14.0233C13.2947 13.8367 13.4187 13.6553 13.4987 13.526C13.656 13.2727 13.7053 13.0127 13.6227 12.8113C13.2493 11.8993 12.8635 10.9922 12.4653 10.09C12.3867 9.91135 12.1533 9.78335 11.9413 9.75802C11.8693 9.74913 11.7973 9.74202 11.7253 9.73668C11.5463 9.72641 11.3668 9.7282 11.188 9.74202L11.4573 9.73268Z" fill="white"/>
</svg>
